STARTFONT 2.1
FONT -FontForge-PP Fraktion Mono-Regular-R-Normal--20-190-75-75-P-114-ISO10646-1
SIZE 19 75 75
FONTBOUNDINGBOX 22 28 -10 -5
COMMENT "Generated by fontforge, http://fontforge.sourceforge.net"
COMMENT "Copyright \(c\) 2020 by Juri Zaech. All rights reserved."
STARTPROPERTIES 40
FOUNDRY "FontForge"
FAMILY_NAME "PP Fraktion Mono"
WEIGHT_NAME "Regular"
SLANT "R"
SETWIDTH_NAME "Normal"
ADD_STYLE_NAME ""
PIXEL_SIZE 20
POINT_SIZE 190
RESOLUTION_X 75
RESOLUTION_Y 75
SPACING "P"
AVERAGE_WIDTH 114
CHARSET_REGISTRY "ISO10646"
CHARSET_ENCODING "1"
FONTNAME_REGISTRY ""
CHARSET_COLLECTIONS "ISO8859-2 ISO8859-9 ISO8859-4 ISO10646-1"
FONT_NAME "PPFraktionMono-Regular"
FACE_NAME "PP Fraktion Mono Regular"
COPYRIGHT "Copyright \(c\) 2020 by Juri Zaech. All rights reserved."
FONT_VERSION "001.100"
FONT_ASCENT 16
FONT_DESCENT 4
UNDERLINE_POSITION -1
UNDERLINE_THICKNESS 1
X_HEIGHT 9
CAP_HEIGHT 13
RAW_ASCENT 800
RAW_DESCENT 200
NORM_SPACE 12
RELATIVE_WEIGHT 40
RELATIVE_SETWIDTH 50
SUPERSCRIPT_X 0
SUPERSCRIPT_Y 7
SUPERSCRIPT_SIZE 12
SUBSCRIPT_X 0
SUBSCRIPT_Y 1
SUBSCRIPT_SIZE 12
FIGURE_WIDTH 12
AVG_LOWERCASE_WIDTH 120
AVG_UPPERCASE_WIDTH 120
ENDPROPERTIES
CHARS 604
STARTCHAR space
ENCODING 32
SWIDTH 600 0
DWIDTH 12 0
BBX 1 1 0 0
BITMAP
00
ENDCHAR
STARTCHAR exclam
ENCODING 33
SWIDTH 600 0
DWIDTH 12 0
BBX 2 14 5 0
BITMAP
C0
C0
C0
C0
C0
C0
C0
C0
C0
C0
00
00
C0
C0
ENDCHAR
STARTCHAR quotedbl
ENCODING 34
SWIDTH 600 0
DWIDTH 12 0
BBX 4 6 4 8
BITMAP
90
90
90
90
90
90
ENDCHAR
STARTCHAR numbersign
ENCODING 35
SWIDTH 600 0
DWIDTH 12 0
BBX 10 14 1 0
BITMAP
0880
1980
1900
1100
7FC0
1100
3300
3300
2200
FF80
2200
6600
6600
4400
ENDCHAR
STARTCHAR dollar
ENCODING 36
SWIDTH 600 0
DWIDTH 12 0
BBX 10 16 1 -1
BITMAP
0C00
3E00
7F00
4D80
4C80
4C00
6C00
3C00
0F00
0D80
0CC0
CCC0
4C80
7D80
3F00
0C00
ENDCHAR
STARTCHAR percent
ENCODING 37
SWIDTH 600 0
DWIDTH 12 0
BBX 10 14 1 0
BITMAP
7040
C8C0
8C80
8D80
C900
7300
0000
0000
0380
24C0
6C40
4C40
C4C0
8380
ENDCHAR
STARTCHAR ampersand
ENCODING 38
SWIDTH 600 0
DWIDTH 12 0
BBX 10 14 1 0
BITMAP
1C00
2600
6200
6200
2600
1C00
3800
6C40
C480
8380
8300
8380
CC80
7840
ENDCHAR
STARTCHAR quotesingle
ENCODING 39
SWIDTH 600 0
DWIDTH 12 0
BBX 2 6 5 8
BITMAP
C0
C0
C0
C0
C0
C0
ENDCHAR
STARTCHAR parenleft
ENCODING 40
SWIDTH 600 0
DWIDTH 12 0
BBX 6 18 3 -3
BITMAP
0C
1C
30
60
40
40
C0
C0
C0
C0
C0
C0
40
60
20
30
1C
04
ENDCHAR
STARTCHAR parenright
ENCODING 41
SWIDTH 600 0
DWIDTH 12 0
BBX 6 18 3 -3
BITMAP
C0
E0
30
18
08
08
0C
0C
0C
0C
0C
0C
08
18
10
30
E0
80
ENDCHAR
STARTCHAR asterisk
ENCODING 42
SWIDTH 600 0
DWIDTH 12 0
BBX 8 7 2 8
BITMAP
18
18
D3
7E
18
24
66
ENDCHAR
STARTCHAR plus
ENCODING 43
SWIDTH 600 0
DWIDTH 12 0
BBX 8 9 2 2
BITMAP
18
18
18
18
FF
18
18
18
18
ENDCHAR
STARTCHAR comma
ENCODING 44
SWIDTH 600 0
DWIDTH 12 0
BBX 2 5 5 -3
BITMAP
C0
C0
40
C0
80
ENDCHAR
STARTCHAR hyphen
ENCODING 45
SWIDTH 600 0
DWIDTH 12 0
BBX 6 1 3 5
BITMAP
FC
ENDCHAR
STARTCHAR period
ENCODING 46
SWIDTH 600 0
DWIDTH 12 0
BBX 2 2 5 0
BITMAP
C0
C0
ENDCHAR
STARTCHAR slash
ENCODING 47
SWIDTH 600 0
DWIDTH 12 0
BBX 6 18 3 -3
BITMAP
04
04
0C
08
08
18
10
10
30
30
20
60
60
40
40
C0
80
80
ENDCHAR
STARTCHAR zero
ENCODING 48
SWIDTH 600 0
DWIDTH 12 0
BBX 8 14 2 0
BITMAP
3C
E7
83
81
81
81
99
99
81
81
81
81
E7
3C
ENDCHAR
STARTCHAR one
ENCODING 49
SWIDTH 600 0
DWIDTH 12 0
BBX 8 14 2 0
BITMAP
18
18
18
18
F8
18
18
18
18
18
18
18
18
FF
ENDCHAR
STARTCHAR two
ENCODING 50
SWIDTH 600 0
DWIDTH 12 0
BBX 8 14 2 0
BITMAP
3E
E7
C1
81
81
01
03
0E
18
70
40
80
80
FF
ENDCHAR
STARTCHAR three
ENCODING 51
SWIDTH 600 0
DWIDTH 12 0
BBX 10 14 1 0
BITMAP
1E00
7380
6180
4080
0080
0180
0E00
0180
0080
C0C0
C0C0
4080
7380
3F00
ENDCHAR
STARTCHAR four
ENCODING 52
SWIDTH 600 0
DWIDTH 12 0
BBX 10 14 1 0
BITMAP
0700
0F00
0B00
1B00
1300
3300
2300
6300
C300
C300
FFC0
0300
0300
0300
ENDCHAR
STARTCHAR five
ENCODING 53
SWIDTH 600 0
DWIDTH 12 0
BBX 9 14 2 0
BITMAP
FF00
C000
C000
8000
8000
9E00
A700
C100
0180
0180
8180
8100
E700
3E00
ENDCHAR
STARTCHAR six
ENCODING 54
SWIDTH 600 0
DWIDTH 12 0
BBX 8 14 2 0
BITMAP
3C
E6
83
81
80
80
BE
C3
81
81
81
81
E7
3C
ENDCHAR
STARTCHAR seven
ENCODING 55
SWIDTH 600 0
DWIDTH 12 0
BBX 9 14 1 0
BITMAP
FF80
C080
C080
0180
0300
0200
0600
0400
0400
0C00
0800
0800
1800
1800
ENDCHAR
STARTCHAR eight
ENCODING 56
SWIDTH 600 0
DWIDTH 12 0
BBX 10 14 1 0
BITMAP
1E00
7380
4080
4080
4080
6180
1E00
3300
4080
C0C0
C0C0
C0C0
6180
3F00
ENDCHAR
STARTCHAR nine
ENCODING 57
SWIDTH 600 0
DWIDTH 12 0
BBX 8 14 2 0
BITMAP
3C
E7
81
81
81
81
C3
7D
01
01
81
C1
67
3C
ENDCHAR
STARTCHAR colon
ENCODING 58
SWIDTH 600 0
DWIDTH 12 0
BBX 2 10 5 0
BITMAP
C0
C0
00
00
00
00
00
00
C0
C0
ENDCHAR
STARTCHAR semicolon
ENCODING 59
SWIDTH 600 0
DWIDTH 12 0
BBX 2 12 5 -3
BITMAP
C0
C0
00
00
00
00
00
C0
C0
40
C0
80
ENDCHAR
STARTCHAR less
ENCODING 60
SWIDTH 600 0
DWIDTH 12 0
BBX 8 8 2 2
BITMAP
01
0F
78
C0
C0
78
0F
01
ENDCHAR
STARTCHAR equal
ENCODING 61
SWIDTH 600 0
DWIDTH 12 0
BBX 8 5 2 4
BITMAP
FF
00
00
00
FF
ENDCHAR
STARTCHAR greater
ENCODING 62
SWIDTH 600 0
DWIDTH 12 0
BBX 8 8 2 2
BITMAP
80
F0
1E
03
03
1E
F0
80
ENDCHAR
STARTCHAR question
ENCODING 63
SWIDTH 600 0
DWIDTH 12 0
BBX 8 14 2 0
BITMAP
3C
66
C3
C3
C3
06
0C
18
18
18
00
00
18
18
ENDCHAR
STARTCHAR at
ENCODING 64
SWIDTH 600 0
DWIDTH 12 0
BBX 10 16 1 -2
BITMAP
3F00
6180
C0C0
8040
8040
9E40
9240
9240
9240
9240
9240
9F80
8000
C080
6180
3F00
ENDCHAR
STARTCHAR A
ENCODING 65
SWIDTH 600 0
DWIDTH 12 0
BBX 10 14 1 0
BITMAP
0C00
1E00
1E00
1200
1200
3300
3100
2100
7F80
6180
4080
4080
C0C0
C0C0
ENDCHAR
STARTCHAR B
ENCODING 66
SWIDTH 600 0
DWIDTH 12 0
BBX 9 14 2 0
BITMAP
FE00
8700
8100
8100
8100
8300
FC00
8300
8180
8180
8180
8180
8300
FE00
ENDCHAR
STARTCHAR C
ENCODING 67
SWIDTH 600 0
DWIDTH 12 0
BBX 10 14 1 0
BITMAP
1E00
7380
4080
4080
C0C0
C000
C000
C000
C000
C0C0
4080
4080
7380
1E00
ENDCHAR
STARTCHAR D
ENCODING 68
SWIDTH 600 0
DWIDTH 12 0
BBX 9 14 2 0
BITMAP
FC00
8700
8100
8100
8180
8180
8180
8180
8180
8180
8100
8100
8700
FC00
ENDCHAR
STARTCHAR E
ENCODING 69
SWIDTH 600 0
DWIDTH 12 0
BBX 9 14 2 0
BITMAP
FF80
C000
C000
C000
C000
C000
FE00
C000
C000
C000
C000
C000
C000
FF80
ENDCHAR
STARTCHAR F
ENCODING 70
SWIDTH 600 0
DWIDTH 12 0
BBX 9 14 2 0
BITMAP
FF80
C000
C000
C000
C000
C000
FF00
C000
C000
C000
C000
C000
C000
C000
ENDCHAR
STARTCHAR G
ENCODING 71
SWIDTH 600 0
DWIDTH 12 0
BBX 10 14 1 0
BITMAP
1E00
7380
4080
4080
C0C0
C000
C000
C3C0
C0C0
C0C0
40C0
41C0
73C0
3EC0
ENDCHAR
STARTCHAR H
ENCODING 72
SWIDTH 600 0
DWIDTH 12 0
BBX 8 14 2 0
BITMAP
81
81
81
81
81
81
81
FF
81
81
81
81
81
81
ENDCHAR
STARTCHAR I
ENCODING 73
SWIDTH 600 0
DWIDTH 12 0
BBX 8 14 2 0
BITMAP
FF
18
18
18
18
18
18
18
18
18
18
18
18
FF
ENDCHAR
STARTCHAR J
ENCODING 74
SWIDTH 600 0
DWIDTH 12 0
BBX 8 14 2 0
BITMAP
3F
01
01
01
01
01
01
81
81
81
81
C3
E7
3C
ENDCHAR
STARTCHAR K
ENCODING 75
SWIDTH 600 0
DWIDTH 12 0
BBX 9 14 2 0
BITMAP
8180
8300
8600
8400
8C00
9800
B800
AC00
E400
C600
8200
8300
8100
8180
ENDCHAR
STARTCHAR L
ENCODING 76
SWIDTH 600 0
DWIDTH 12 0
BBX 9 14 2 0
BITMAP
C000
C000
C000
C000
C000
C000
C000
C000
C000
C000
C000
C000
C000
FF80
ENDCHAR
STARTCHAR M
ENCODING 77
SWIDTH 600 0
DWIDTH 12 0
BBX 8 14 2 0
BITMAP
C3
C3
C3
A5
A5
A5
99
99
99
81
81
81
81
81
ENDCHAR
STARTCHAR N
ENCODING 78
SWIDTH 600 0
DWIDTH 12 0
BBX 8 14 2 0
BITMAP
C1
E1
A1
A1
B1
91
99
99
89
8D
85
85
87
83
ENDCHAR
STARTCHAR O
ENCODING 79
SWIDTH 600 0
DWIDTH 12 0
BBX 10 14 1 0
BITMAP
1E00
7380
4080
4080
C0C0
C0C0
C0C0
C0C0
C0C0
C0C0
4080
4080
7380
1E00
ENDCHAR
STARTCHAR P
ENCODING 80
SWIDTH 600 0
DWIDTH 12 0
BBX 9 14 2 0
BITMAP
FE00
8300
8180
8180
8180
8180
8100
FF00
8000
8000
8000
8000
8000
8000
ENDCHAR
STARTCHAR Q
ENCODING 81
SWIDTH 600 0
DWIDTH 12 0
BBX 10 17 1 -3
BITMAP
1E00
7380
4080
4080
C0C0
C0C0
C0C0
C0C0
C0C0
C0C0
4080
4080
7380
1E00
0C00
0C00
0700
ENDCHAR
STARTCHAR R
ENCODING 82
SWIDTH 600 0
DWIDTH 12 0
BBX 9 14 2 0
BITMAP
FE00
C300
C100
C180
C180
C180
C300
FE00
C800
CC00
C400
C600
C300
C100
ENDCHAR
STARTCHAR S
ENCODING 83
SWIDTH 600 0
DWIDTH 12 0
BBX 10 14 1 0
BITMAP
3E00
7300
4180
4080
4000
6000
3C00
0700
0180
00C0
C0C0
4080
7380
3F00
ENDCHAR
STARTCHAR T
ENCODING 84
SWIDTH 600 0
DWIDTH 12 0
BBX 10 14 1 0
BITMAP
FFC0
0C00
0C00
0C00
0C00
0C00
0C00
0C00
0C00
0C00
0C00
0C00
0C00
0C00
ENDCHAR
STARTCHAR U
ENCODING 85
SWIDTH 600 0
DWIDTH 12 0
BBX 8 14 2 0
BITMAP
81
81
81
81
81
81
81
81
81
81
81
C3
E7
3C
ENDCHAR
STARTCHAR V
ENCODING 86
SWIDTH 600 0
DWIDTH 12 0
BBX 10 14 1 0
BITMAP
C0C0
C0C0
4080
4080
6180
6180
2100
3300
3300
1200
1200
1E00
1E00
0C00
ENDCHAR
STARTCHAR W
ENCODING 87
SWIDTH 600 0
DWIDTH 12 0
BBX 10 14 1 0
BITMAP
8C40
8C40
8C40
9C40
96C0
D2C0
D2C0
D2C0
D280
5280
7280
7380
6180
6180
ENDCHAR
STARTCHAR X
ENCODING 88
SWIDTH 600 0
DWIDTH 12 0
BBX 10 14 1 0
BITMAP
4080
6180
2100
3300
1200
1E00
0C00
0C00
1E00
1200
3300
6180
4080
C0C0
ENDCHAR
STARTCHAR Y
ENCODING 89
SWIDTH 600 0
DWIDTH 12 0
BBX 10 14 1 0
BITMAP
C0C0
4080
6180
2100
3300
1200
1E00
0C00
0C00
0C00
0C00
0C00
0C00
0C00
ENDCHAR
STARTCHAR Z
ENCODING 90
SWIDTH 600 0
DWIDTH 12 0
BBX 10 14 1 0
BITMAP
7F80
0080
0180
0300
0200
0600
0400
0800
1800
1000
2000
6000
4000
FFC0
ENDCHAR
STARTCHAR bracketleft
ENCODING 91
SWIDTH 600 0
DWIDTH 12 0
BBX 6 18 4 -3
BITMAP
FC
80
80
80
80
80
80
80
80
80
80
80
80
80
80
80
80
FC
ENDCHAR
STARTCHAR backslash
ENCODING 92
SWIDTH 600 0
DWIDTH 12 0
BBX 6 18 3 -3
BITMAP
80
80
C0
40
40
60
20
20
30
30
10
18
18
08
08
0C
04
04
ENDCHAR
STARTCHAR bracketright
ENCODING 93
SWIDTH 600 0
DWIDTH 12 0
BBX 6 18 2 -3
BITMAP
FC
04
04
04
04
04
04
04
04
04
04
04
04
04
04
04
04
FC
ENDCHAR
STARTCHAR asciicircum
ENCODING 94
SWIDTH 600 0
DWIDTH 12 0
BBX 6 6 3 8
BITMAP
30
78
48
48
CC
84
ENDCHAR
STARTCHAR underscore
ENCODING 95
SWIDTH 600 0
DWIDTH 12 0
BBX 10 1 1 -4
BITMAP
FFC0
ENDCHAR
STARTCHAR grave
ENCODING 96
SWIDTH 600 0
DWIDTH 12 0
BBX 3 3 4 11
BITMAP
C0
40
60
ENDCHAR
STARTCHAR a
ENCODING 97
SWIDTH 600 0
DWIDTH 12 0
BBX 10 10 1 0
BITMAP
1E00
7300
6100
4180
0380
7F80
4180
C380
4780
79C0
ENDCHAR
STARTCHAR b
ENCODING 98
SWIDTH 600 0
DWIDTH 12 0
BBX 8 15 2 0
BITMAP
80
80
80
80
80
9E
A7
C3
C1
81
81
C1
C3
A7
9C
ENDCHAR
STARTCHAR c
ENCODING 99
SWIDTH 600 0
DWIDTH 12 0
BBX 8 10 2 0
BITMAP
3C
66
C3
81
80
80
80
C3
66
3C
ENDCHAR
STARTCHAR d
ENCODING 100
SWIDTH 600 0
DWIDTH 12 0
BBX 8 15 2 0
BITMAP
01
01
01
01
01
79
E5
C3
83
81
81
83
C3
E5
79
ENDCHAR
STARTCHAR e
ENCODING 101
SWIDTH 600 0
DWIDTH 12 0
BBX 8 10 2 0
BITMAP
3C
66
C3
81
FF
80
80
C3
66
3C
ENDCHAR
STARTCHAR f
ENCODING 102
SWIDTH 600 0
DWIDTH 12 0
BBX 10 15 1 0
BITMAP
0FC0
0800
0800
0800
0800
FFC0
0800
0800
0800
0800
0800
0800
0800
0800
FFC0
ENDCHAR
STARTCHAR g
ENCODING 103
SWIDTH 600 0
DWIDTH 12 0
BBX 8 14 2 -4
BITMAP
79
E5
C3
83
81
81
83
C3
E5
79
01
01
03
FE
ENDCHAR
STARTCHAR h
ENCODING 104
SWIDTH 600 0
DWIDTH 12 0
BBX 8 15 2 0
BITMAP
80
80
80
80
80
9E
A7
C3
81
81
81
81
81
81
81
ENDCHAR
STARTCHAR i
ENCODING 105
SWIDTH 600 0
DWIDTH 12 0
BBX 9 15 2 0
BITMAP
1C00
1C00
0000
0000
0000
F800
0800
0800
0800
0800
0800
0800
0800
0800
0780
ENDCHAR
STARTCHAR j
ENCODING 106
SWIDTH 600 0
DWIDTH 12 0
BBX 7 19 2 -4
BITMAP
06
06
00
00
00
FE
06
06
06
06
06
06
06
06
06
06
06
06
FC
ENDCHAR
STARTCHAR k
ENCODING 107
SWIDTH 600 0
DWIDTH 12 0
BBX 9 15 2 0
BITMAP
C000
C000
C000
C000
C000
C300
C600
CC00
D800
F800
EC00
C600
C200
C300
C180
ENDCHAR
STARTCHAR l
ENCODING 108
SWIDTH 600 0
DWIDTH 12 0
BBX 9 15 1 0
BITMAP
F800
0800
0800
0800
0800
0800
0800
0800
0800
0800
0800
0800
0800
0800
0F80
ENDCHAR
STARTCHAR m
ENCODING 109
SWIDTH 600 0
DWIDTH 12 0
BBX 10 10 1 0
BITMAP
BB80
CEC0
8C40
8C40
8C40
8C40
8C40
8C40
8C40
8C40
ENDCHAR
STARTCHAR n
ENCODING 110
SWIDTH 600 0
DWIDTH 12 0
BBX 8 10 2 0
BITMAP
9E
A7
C3
81
81
81
81
81
81
81
ENDCHAR
STARTCHAR o
ENCODING 111
SWIDTH 600 0
DWIDTH 12 0
BBX 8 10 2 0
BITMAP
3C
66
C3
81
81
81
81
C3
66
3C
ENDCHAR
STARTCHAR p
ENCODING 112
SWIDTH 600 0
DWIDTH 12 0
BBX 8 14 2 -4
BITMAP
9E
A7
C3
C1
81
81
C1
C3
A7
9C
80
80
80
80
ENDCHAR
STARTCHAR q
ENCODING 113
SWIDTH 600 0
DWIDTH 12 0
BBX 8 14 2 -4
BITMAP
79
E5
C3
83
81
81
83
C3
E5
79
01
01
01
01
ENDCHAR
STARTCHAR r
ENCODING 114
SWIDTH 600 0
DWIDTH 12 0
BBX 9 10 2 0
BITMAP
F780
3800
3000
3000
3000
3000
3000
3000
3000
FF00
ENDCHAR
STARTCHAR s
ENCODING 115
SWIDTH 600 0
DWIDTH 12 0
BBX 8 10 2 0
BITMAP
7C
C6
83
C0
78
0F
01
81
C3
3E
ENDCHAR
STARTCHAR t
ENCODING 116
SWIDTH 600 0
DWIDTH 12 0
BBX 9 12 1 0
BITMAP
1800
1800
FF80
1800
1800
1800
1800
1800
1800
1800
1800
0F80
ENDCHAR
STARTCHAR u
ENCODING 117
SWIDTH 600 0
DWIDTH 12 0
BBX 8 10 2 0
BITMAP
81
81
81
81
81
81
81
C3
E5
79
ENDCHAR
STARTCHAR v
ENCODING 118
SWIDTH 600 0
DWIDTH 12 0
BBX 10 10 1 0
BITMAP
C0C0
4080
6180
2100
2100
3300
1200
1200
1E00
0C00
ENDCHAR
STARTCHAR w
ENCODING 119
SWIDTH 600 0
DWIDTH 12 0
BBX 10 10 1 0
BITMAP
8C40
8C40
8C40
9CC0
D2C0
5280
5280
5280
7380
6180
ENDCHAR
STARTCHAR x
ENCODING 120
SWIDTH 600 0
DWIDTH 12 0
BBX 8 10 2 0
BITMAP
C3
42
66
3C
18
18
3C
66
C3
81
ENDCHAR
STARTCHAR y
ENCODING 121
SWIDTH 600 0
DWIDTH 12 0
BBX 10 14 1 -4
BITMAP
C0C0
4080
6180
2100
2100
3300
1200
1200
1E00
0C00
0C00
0800
1800
7000
ENDCHAR
STARTCHAR z
ENCODING 122
SWIDTH 600 0
DWIDTH 12 0
BBX 8 10 2 0
BITMAP
FF
03
06
0C
08
10
20
60
C0
FF
ENDCHAR
STARTCHAR braceleft
ENCODING 123
SWIDTH 600 0
DWIDTH 12 0
BBX 8 18 2 -3
BITMAP
0F
08
18
18
18
18
18
18
F0
10
18
18
18
18
18
18
08
0F
ENDCHAR
STARTCHAR bar
ENCODING 124
SWIDTH 600 0
DWIDTH 12 0
BBX 2 16 5 -1
BITMAP
C0
C0
C0
C0
C0
C0
C0
C0
C0
C0
C0
C0
C0
C0
C0
C0
ENDCHAR
STARTCHAR braceright
ENCODING 125
SWIDTH 600 0
DWIDTH 12 0
BBX 8 18 2 -3
BITMAP
F0
10
18
18
18
18
18
18
0F
08
18
18
18
18
18
18
10
F0
ENDCHAR
STARTCHAR asciitilde
ENCODING 126
SWIDTH 600 0
DWIDTH 12 0
BBX 8 3 2 5
BITMAP
71
D9
8F
ENDCHAR
STARTCHAR exclamdown
ENCODING 161
SWIDTH 600 0
DWIDTH 12 0
BBX 2 14 5 -4
BITMAP
C0
C0
00
00
C0
C0
C0
C0
C0
C0
C0
C0
C0
C0
ENDCHAR
STARTCHAR cent
ENCODING 162
SWIDTH 600 0
DWIDTH 12 0
BBX 8 14 2 0
BITMAP
18
18
7E
C3
C3
80
80
80
80
C3
C3
7E
18
18
ENDCHAR
STARTCHAR sterling
ENCODING 163
SWIDTH 600 0
DWIDTH 12 0
BBX 8 14 2 0
BITMAP
3C
66
C3
C1
C1
40
60
FC
20
20
20
20
40
FF
ENDCHAR
STARTCHAR currency
ENCODING 164
SWIDTH 600 0
DWIDTH 12 0
BBX 8 8 2 3
BITMAP
BD
66
C3
81
81
81
42
BD
ENDCHAR
STARTCHAR yen
ENCODING 165
SWIDTH 600 0
DWIDTH 12 0
BBX 10 14 1 0
BITMAP
C0C0
4080
6180
2100
3300
7380
1E00
0C00
7F80
0C00
0C00
0C00
0C00
0C00
ENDCHAR
STARTCHAR brokenbar
ENCODING 166
SWIDTH 600 0
DWIDTH 12 0
BBX 2 16 5 -1
BITMAP
C0
C0
C0
C0
C0
C0
C0
00
00
C0
C0
C0
C0
C0
C0
C0
ENDCHAR
STARTCHAR section
ENCODING 167
SWIDTH 600 0
DWIDTH 12 0
BBX 8 14 2 0
BITMAP
3C
66
42
40
78
4E
C3
C3
72
1C
02
42
66
3C
ENDCHAR
STARTCHAR dieresis
ENCODING 168
SWIDTH 600 0
DWIDTH 12 0
BBX 6 2 3 12
BITMAP
CC
CC
ENDCHAR
STARTCHAR copyright
ENCODING 169
SWIDTH 600 0
DWIDTH 12 0
BBX 10 14 1 0
BITMAP
3F00
6180
C0C0
8040
9E40
9240
B040
B040
9240
9E40
8040
C0C0
6180
3F00
ENDCHAR
STARTCHAR ordfeminine
ENCODING 170
SWIDTH 600 0
DWIDTH 12 0
BBX 7 8 3 6
BITMAP
78
C8
8C
0C
FC
8C
9C
FE
ENDCHAR
STARTCHAR guillemotleft
ENCODING 171
SWIDTH 600 0
DWIDTH 12 0
BBX 7 8 3 1
BITMAP
66
4C
C8
98
98
C8
4C
26
ENDCHAR
STARTCHAR logicalnot
ENCODING 172
SWIDTH 600 0
DWIDTH 12 0
BBX 8 4 2 3
BITMAP
FF
01
01
01
ENDCHAR
STARTCHAR registered
ENCODING 174
SWIDTH 600 0
DWIDTH 12 0
BBX 8 8 2 6
BITMAP
3C
42
99
A5
99
A9
42
3C
ENDCHAR
STARTCHAR macron
ENCODING 175
SWIDTH 600 0
DWIDTH 12 0
BBX 6 1 3 13
BITMAP
FC
ENDCHAR
STARTCHAR degree
ENCODING 176
SWIDTH 600 0
DWIDTH 12 0
BBX 6 6 3 8
BITMAP
78
CC
84
84
CC
78
ENDCHAR
STARTCHAR plusminus
ENCODING 177
SWIDTH 600 0
DWIDTH 12 0
BBX 8 10 2 2
BITMAP
18
18
18
FF
18
18
18
18
00
FF
ENDCHAR
STARTCHAR uni00B2
ENCODING 178
SWIDTH 600 0
DWIDTH 12 0
BBX 6 8 3 7
BITMAP
78
4C
CC
08
38
60
C0
FC
ENDCHAR
STARTCHAR uni00B3
ENCODING 179
SWIDTH 600 0
DWIDTH 12 0
BBX 6 8 3 7
BITMAP
78
CC
08
30
0C
84
CC
78
ENDCHAR
STARTCHAR acute
ENCODING 180
SWIDTH 600 0
DWIDTH 12 0
BBX 3 3 5 11
BITMAP
60
40
C0
ENDCHAR
STARTCHAR uni00B5
ENCODING 181
SWIDTH 600 0
DWIDTH 12 0
BBX 8 14 2 -4
BITMAP
81
81
81
81
81
81
81
C3
E5
B9
80
80
80
80
ENDCHAR
STARTCHAR paragraph
ENCODING 182
SWIDTH 600 0
DWIDTH 12 0
BBX 10 14 1 0
BITMAP
78C0
F900
F900
F900
F900
7900
0900
0900
0900
0900
0900
0900
0900
0900
ENDCHAR
STARTCHAR periodcentered
ENCODING 183
SWIDTH 600 0
DWIDTH 12 0
BBX 2 2 5 6
BITMAP
C0
C0
ENDCHAR
STARTCHAR cedilla
ENCODING 184
SWIDTH 600 0
DWIDTH 12 0
BBX 4 4 4 -4
BITMAP
40
70
10
E0
ENDCHAR
STARTCHAR uni00B9
ENCODING 185
SWIDTH 600 0
DWIDTH 12 0
BBX 6 8 3 7
BITMAP
30
30
70
30
30
30
30
FC
ENDCHAR
STARTCHAR ordmasculine
ENCODING 186
SWIDTH 600 0
DWIDTH 12 0
BBX 6 8 3 6
BITMAP
78
CC
84
84
84
84
CC
78
ENDCHAR
STARTCHAR guillemotright
ENCODING 187
SWIDTH 600 0
DWIDTH 12 0
BBX 7 8 2 1
BITMAP
CC
64
26
32
32
26
6C
C8
ENDCHAR
STARTCHAR onequarter
ENCODING 188
SWIDTH 600 0
DWIDTH 12 0
BBX 12 14 0 0
BITMAP
2020
2040
60C0
2080
2000
2000
F8C0
00C0
0140
0140
1240
3240
23F0
4040
ENDCHAR
STARTCHAR onehalf
ENCODING 189
SWIDTH 600 0
DWIDTH 12 0
BBX 12 14 0 0
BITMAP
2020
2040
60C0
2080
2000
2000
F9E0
0120
0130
0020
1060
3180
2100
41F0
ENDCHAR
STARTCHAR threequarters
ENCODING 190
SWIDTH 600 0
DWIDTH 12 0
BBX 12 14 0 0
BITMAP
7820
4840
08C0
3080
0800
C400
4C00
78C0
00C0
0140
1240
3240
23F0
4040
ENDCHAR
STARTCHAR questiondown
ENCODING 191
SWIDTH 600 0
DWIDTH 12 0
BBX 8 14 2 -4
BITMAP
18
18
00
00
18
18
18
30
60
C3
C3
C3
66
3C
ENDCHAR
STARTCHAR Agrave
ENCODING 192
SWIDTH 600 0
DWIDTH 12 0
BBX 10 18 1 0
BITMAP
3000
1800
0400
0000
0C00
1E00
1E00
1200
1200
3300
3100
2100
7F80
6180
4080
4080
C0C0
C0C0
ENDCHAR
STARTCHAR Aacute
ENCODING 193
SWIDTH 600 0
DWIDTH 12 0
BBX 10 18 1 0
BITMAP
0700
0600
0800
0000
0C00
1E00
1E00
1200
1200
3300
3100
2100
7F80
6180
4080
4080
C0C0
C0C0
ENDCHAR
STARTCHAR Acircumflex
ENCODING 194
SWIDTH 600 0
DWIDTH 12 0
BBX 10 18 1 0
BITMAP
0C00
1E00
3300
0000
0C00
1E00
1E00
1200
1200
3300
3100
2100
7F80
6180
4080
4080
C0C0
C0C0
ENDCHAR
STARTCHAR Atilde
ENCODING 195
SWIDTH 600 0
DWIDTH 12 0
BBX 10 18 1 0
BITMAP
3900
2F00
0000
0000
0C00
1E00
1E00
1200
1200
3300
3100
2100
7F80
6180
4080
4080
C0C0
C0C0
ENDCHAR
STARTCHAR Adieresis
ENCODING 196
SWIDTH 600 0
DWIDTH 12 0
BBX 10 18 1 0
BITMAP
3300
3300
0000
0000
0C00
1E00
1E00
1200
1200
3300
3100
2100
7F80
6180
4080
4080
C0C0
C0C0
ENDCHAR
STARTCHAR Aring
ENCODING 197
SWIDTH 600 0
DWIDTH 12 0
BBX 10 20 1 0
BITMAP
0E00
1200
1200
1200
0E00
0000
0C00
1E00
1E00
1200
1200
3300
3100
2100
7F80
6180
4080
4080
C0C0
C0C0
ENDCHAR
STARTCHAR AE
ENCODING 198
SWIDTH 600 0
DWIDTH 12 0
BBX 10 14 1 0
BITMAP
1FC0
1400
3400
2400
2400
2400
6780
6400
7C00
4400
C400
C400
8400
87C0
ENDCHAR
STARTCHAR Ccedilla
ENCODING 199
SWIDTH 600 0
DWIDTH 12 0
BBX 10 18 1 -4
BITMAP
1E00
7380
4080
4080
C0C0
C000
C000
C000
C000
C0C0
4080
4080
7380
1E00
0800
0E00
0200
1C00
ENDCHAR
STARTCHAR Egrave
ENCODING 200
SWIDTH 600 0
DWIDTH 12 0
BBX 9 18 2 0
BITMAP
3000
1800
0C00
0000
FF80
C000
C000
C000
C000
C000
FE00
C000
C000
C000
C000
C000
C000
FF80
ENDCHAR
STARTCHAR Eacute
ENCODING 201
SWIDTH 600 0
DWIDTH 12 0
BBX 9 18 2 0
BITMAP
0600
0C00
1800
0000
FF80
C000
C000
C000
C000
C000
FE00
C000
C000
C000
C000
C000
C000
FF80
ENDCHAR
STARTCHAR Ecircumflex
ENCODING 202
SWIDTH 600 0
DWIDTH 12 0
BBX 9 18 2 0
BITMAP
0800
3C00
6600
0000
FF80
C000
C000
C000
C000
C000
FE00
C000
C000
C000
C000
C000
C000
FF80
ENDCHAR
STARTCHAR Edieresis
ENCODING 203
SWIDTH 600 0
DWIDTH 12 0
BBX 9 18 2 0
BITMAP
6600
6600
0000
0000
FF80
C000
C000
C000
C000
C000
FE00
C000
C000
C000
C000
C000
C000
FF80
ENDCHAR
STARTCHAR Igrave
ENCODING 204
SWIDTH 600 0
DWIDTH 12 0
BBX 8 18 2 0
BITMAP
60
30
18
00
FF
18
18
18
18
18
18
18
18
18
18
18
18
FF
ENDCHAR
STARTCHAR Iacute
ENCODING 205
SWIDTH 600 0
DWIDTH 12 0
BBX 8 18 2 0
BITMAP
0E
0C
10
00
FF
18
18
18
18
18
18
18
18
18
18
18
18
FF
ENDCHAR
STARTCHAR Icircumflex
ENCODING 206
SWIDTH 600 0
DWIDTH 12 0
BBX 8 18 2 0
BITMAP
18
3C
66
00
FF
18
18
18
18
18
18
18
18
18
18
18
18
FF
ENDCHAR
STARTCHAR Idieresis
ENCODING 207
SWIDTH 600 0
DWIDTH 12 0
BBX 8 18 2 0
BITMAP
66
66
00
00
FF
18
18
18
18
18
18
18
18
18
18
18
18
FF
ENDCHAR
STARTCHAR Eth
ENCODING 208
SWIDTH 600 0
DWIDTH 12 0
BBX 11 14 0 0
BITMAP
3F00
21C0
20C0
2040
2040
2060
2060
FC60
2060
2060
2040
2040
21C0
3F00
ENDCHAR
STARTCHAR Ntilde
ENCODING 209
SWIDTH 600 0
DWIDTH 12 0
BBX 8 18 2 0
BITMAP
73
5E
04
00
C1
E1
A1
A1
B1
91
99
99
89
8D
85
85
87
83
ENDCHAR
STARTCHAR Ograve
ENCODING 210
SWIDTH 600 0
DWIDTH 12 0
BBX 10 18 1 0
BITMAP
3000
1800
0C00
0000
1E00
7380
4080
4080
C0C0
C0C0
C0C0
C0C0
C0C0
C0C0
4080
4080
7380
1E00
ENDCHAR
STARTCHAR Oacute
ENCODING 211
SWIDTH 600 0
DWIDTH 12 0
BBX 10 18 1 0
BITMAP
0700
0600
0800
0000
1E00
7380
4080
4080
C0C0
C0C0
C0C0
C0C0
C0C0
C0C0
4080
4080
7380
1E00
ENDCHAR
STARTCHAR Ocircumflex
ENCODING 212
SWIDTH 600 0
DWIDTH 12 0
BBX 10 18 1 0
BITMAP
0C00
1E00
3300
0000
1E00
7380
4080
4080
C0C0
C0C0
C0C0
C0C0
C0C0
C0C0
4080
4080
7380
1E00
ENDCHAR
STARTCHAR Otilde
ENCODING 213
SWIDTH 600 0
DWIDTH 12 0
BBX 10 18 1 0
BITMAP
3800
2D00
6300
0000
1E00
7380
4080
4080
C0C0
C0C0
C0C0
C0C0
C0C0
C0C0
4080
4080
7380
1E00
ENDCHAR
STARTCHAR Odieresis
ENCODING 214
SWIDTH 600 0
DWIDTH 12 0
BBX 10 17 1 0
BITMAP
3300
3300
0000
1E00
7380
4080
4080
C0C0
C0C0
C0C0
C0C0
C0C0
C0C0
4080
4080
7380
1E00
ENDCHAR
STARTCHAR multiply
ENCODING 215
SWIDTH 600 0
DWIDTH 12 0
BBX 8 7 2 3
BITMAP
42
66
3C
18
3C
66
C3
ENDCHAR
STARTCHAR Oslash
ENCODING 216
SWIDTH 600 0
DWIDTH 12 0
BBX 10 14 1 0
BITMAP
1E80
7380
4180
4180
C2C0
C6C0
C4C0
C8C0
D8C0
D0C0
6080
6080
7380
5E00
ENDCHAR
STARTCHAR Ugrave
ENCODING 217
SWIDTH 600 0
DWIDTH 12 0
BBX 8 18 2 0
BITMAP
60
30
08
00
81
81
81
81
81
81
81
81
81
81
81
C3
E7
3C
ENDCHAR
STARTCHAR Uacute
ENCODING 218
SWIDTH 600 0
DWIDTH 12 0
BBX 8 18 2 0
BITMAP
0E
0C
10
00
81
81
81
81
81
81
81
81
81
81
81
C3
E7
3C
ENDCHAR
STARTCHAR Ucircumflex
ENCODING 219
SWIDTH 600 0
DWIDTH 12 0
BBX 8 18 2 0
BITMAP
18
3C
66
00
81
81
81
81
81
81
81
81
81
81
81
C3
E7
3C
ENDCHAR
STARTCHAR Udieresis
ENCODING 220
SWIDTH 600 0
DWIDTH 12 0
BBX 8 18 2 0
BITMAP
66
66
00
00
81
81
81
81
81
81
81
81
81
81
81
C3
E7
3C
ENDCHAR
STARTCHAR Yacute
ENCODING 221
SWIDTH 600 0
DWIDTH 12 0
BBX 10 18 1 0
BITMAP
0700
0600
0800
0000
C0C0
4080
6180
2100
3300
1200
1E00
0C00
0C00
0C00
0C00
0C00
0C00
0C00
ENDCHAR
STARTCHAR Thorn
ENCODING 222
SWIDTH 600 0
DWIDTH 12 0
BBX 9 14 2 0
BITMAP
8000
8000
8000
FF00
8100
8180
8180
8180
8180
8300
FE00
8000
8000
8000
ENDCHAR
STARTCHAR germandbls
ENCODING 223
SWIDTH 600 0
DWIDTH 12 0
BBX 9 14 2 0
BITMAP
3C00
6600
C200
8200
8200
8600
9C00
8300
8100
8180
8180
8100
8700
9E00
ENDCHAR
STARTCHAR agrave
ENCODING 224
SWIDTH 600 0
DWIDTH 12 0
BBX 10 14 1 0
BITMAP
1800
1800
0C00
0000
1E00
7300
6100
4180
0380
7F80
4180
C380
4780
79C0
ENDCHAR
STARTCHAR aacute
ENCODING 225
SWIDTH 600 0
DWIDTH 12 0
BBX 10 14 1 0
BITMAP
0600
0C00
0800
0000
1E00
7300
6100
4180
0380
7F80
4180
C380
4780
79C0
ENDCHAR
STARTCHAR acircumflex
ENCODING 226
SWIDTH 600 0
DWIDTH 12 0
BBX 10 14 1 0
BITMAP
0C00
1E00
3300
0000
1E00
7300
6100
4180
0380
7F80
4180
C380
4780
79C0
ENDCHAR
STARTCHAR atilde
ENCODING 227
SWIDTH 600 0
DWIDTH 12 0
BBX 10 15 1 0
BITMAP
3900
6D00
6700
0000
0000
1E00
7300
6100
4180
0380
7F80
4180
C380
4780
79C0
ENDCHAR
STARTCHAR adieresis
ENCODING 228
SWIDTH 600 0
DWIDTH 12 0
BBX 10 14 1 0
BITMAP
3300
3300
0000
0000
1E00
7300
4100
4180
0780
7F80
4180
C380
4780
79C0
ENDCHAR
STARTCHAR aring
ENCODING 229
SWIDTH 600 0
DWIDTH 12 0
BBX 10 16 1 0
BITMAP
1C00
3200
3200
1200
1C00
0000
1E00
7300
4100
4180
0780
7F80
4180
C380
4780
79C0
ENDCHAR
STARTCHAR ae
ENCODING 230
SWIDTH 600 0
DWIDTH 12 0
BBX 10 10 1 0
BITMAP
7380
DEC0
8C40
0C40
3FC0
FC00
8C00
8C40
9EC0
F380
ENDCHAR
STARTCHAR ccedilla
ENCODING 231
SWIDTH 600 0
DWIDTH 12 0
BBX 8 14 2 -4
BITMAP
3C
66
C3
81
80
80
80
C3
67
3C
10
1C
04
3C
ENDCHAR
STARTCHAR egrave
ENCODING 232
SWIDTH 600 0
DWIDTH 12 0
BBX 8 14 2 0
BITMAP
30
18
18
00
3C
66
C3
81
FF
80
80
C3
66
3C
ENDCHAR
STARTCHAR eacute
ENCODING 233
SWIDTH 600 0
DWIDTH 12 0
BBX 8 14 2 0
BITMAP
0C
08
18
00
3C
66
C3
81
FF
80
80
C3
66
3C
ENDCHAR
STARTCHAR ecircumflex
ENCODING 234
SWIDTH 600 0
DWIDTH 12 0
BBX 8 14 2 0
BITMAP
18
3C
66
00
3C
66
C3
81
FF
80
80
C3
66
3C
ENDCHAR
STARTCHAR edieresis
ENCODING 235
SWIDTH 600 0
DWIDTH 12 0
BBX 8 14 2 0
BITMAP
66
66
00
00
3C
66
C3
81
FF
80
80
C3
66
3C
ENDCHAR
STARTCHAR igrave
ENCODING 236
SWIDTH 600 0
DWIDTH 12 0
BBX 9 14 2 0
BITMAP
3000
1800
0C00
0000
F800
0800
0800
0800
0800
0800
0800
0800
0800
0780
ENDCHAR
STARTCHAR iacute
ENCODING 237
SWIDTH 600 0
DWIDTH 12 0
BBX 9 14 2 0
BITMAP
0600
0C00
1800
0000
F800
0800
0800
0800
0800
0800
0800
0800
0800
0780
ENDCHAR
STARTCHAR icircumflex
ENCODING 238
SWIDTH 600 0
DWIDTH 12 0
BBX 9 14 2 0
BITMAP
1C00
1600
2200
0000
F800
0800
0800
0800
0800
0800
0800
0800
0800
0780
ENDCHAR
STARTCHAR idieresis
ENCODING 239
SWIDTH 600 0
DWIDTH 12 0
BBX 9 14 2 0
BITMAP
7700
7700
0000
0000
F800
0800
0800
0800
0800
0800
0800
0800
0800
0780
ENDCHAR
STARTCHAR eth
ENCODING 240
SWIDTH 600 0
DWIDTH 12 0
BBX 8 14 2 0
BITMAP
30
0C
07
0E
03
03
7D
C3
81
81
81
83
E6
3C
ENDCHAR
STARTCHAR ntilde
ENCODING 241
SWIDTH 600 0
DWIDTH 12 0
BBX 8 15 2 0
BITMAP
73
5A
4E
00
00
9E
A7
C3
81
81
81
81
81
81
81
ENDCHAR
STARTCHAR ograve
ENCODING 242
SWIDTH 600 0
DWIDTH 12 0
BBX 8 14 2 0
BITMAP
30
18
18
00
3C
66
C3
81
81
81
81
C3
66
3C
ENDCHAR
STARTCHAR oacute
ENCODING 243
SWIDTH 600 0
DWIDTH 12 0
BBX 8 14 2 0
BITMAP
0C
08
18
00
3C
66
C3
81
81
81
81
C3
66
3C
ENDCHAR
STARTCHAR ocircumflex
ENCODING 244
SWIDTH 600 0
DWIDTH 12 0
BBX 8 14 2 0
BITMAP
18
3C
66
00
3C
66
C3
81
81
81
81
C3
66
3C
ENDCHAR
STARTCHAR otilde
ENCODING 245
SWIDTH 600 0
DWIDTH 12 0
BBX 8 15 2 0
BITMAP
73
5A
4E
00
00
3C
66
C3
81
81
81
81
C3
66
3C
ENDCHAR
STARTCHAR odieresis
ENCODING 246
SWIDTH 600 0
DWIDTH 12 0
BBX 8 14 2 0
BITMAP
66
66
00
00
3C
66
C3
81
81
81
81
C3
66
3C
ENDCHAR
STARTCHAR divide
ENCODING 247
SWIDTH 600 0
DWIDTH 12 0
BBX 8 9 2 2
BITMAP
18
18
00
00
FF
00
00
18
18
ENDCHAR
STARTCHAR oslash
ENCODING 248
SWIDTH 600 0
DWIDTH 12 0
BBX 8 10 2 0
BITMAP
3D
67
C7
85
89
91
B1
E3
E6
BC
ENDCHAR
STARTCHAR ugrave
ENCODING 249
SWIDTH 600 0
DWIDTH 12 0
BBX 8 14 2 0
BITMAP
30
10
18
00
81
81
81
81
81
81
81
C3
E5
79
ENDCHAR
STARTCHAR uacute
ENCODING 250
SWIDTH 600 0
DWIDTH 12 0
BBX 8 14 2 0
BITMAP
0C
18
10
00
81
81
81
81
81
81
81
C3
E5
79
ENDCHAR
STARTCHAR ucircumflex
ENCODING 251
SWIDTH 600 0
DWIDTH 12 0
BBX 8 14 2 0
BITMAP
18
3C
66
00
81
81
81
81
81
81
81
C3
E5
79
ENDCHAR
STARTCHAR udieresis
ENCODING 252
SWIDTH 600 0
DWIDTH 12 0
BBX 8 14 2 0
BITMAP
66
66
00
00
81
81
81
81
81
81
81
C3
E5
79
ENDCHAR
STARTCHAR yacute
ENCODING 253
SWIDTH 600 0
DWIDTH 12 0
BBX 10 18 1 -4
BITMAP
0600
0400
0C00
0000
C0C0
4080
6180
2100
2100
3300
1200
1200
1E00
0C00
0C00
0800
1800
7000
ENDCHAR
STARTCHAR thorn
ENCODING 254
SWIDTH 600 0
DWIDTH 12 0
BBX 8 19 2 -4
BITMAP
80
80
80
80
80
9E
A7
C3
C1
81
81
C1
C3
A7
9C
80
80
80
80
ENDCHAR
STARTCHAR ydieresis
ENCODING 255
SWIDTH 600 0
DWIDTH 12 0
BBX 10 18 1 -4
BITMAP
3300
3300
0000
0000
C0C0
4080
6180
2100
2100
3300
1200
1200
1E00
0C00
0C00
0800
1800
7000
ENDCHAR
STARTCHAR Amacron
ENCODING 256
SWIDTH 600 0
DWIDTH 12 0
BBX 10 17 1 0
BITMAP
3F00
0000
0000
0C00
1E00
1E00
1200
1200
3300
3100
2100
7F80
6180
4080
4080
C0C0
C0C0
ENDCHAR
STARTCHAR amacron
ENCODING 257
SWIDTH 600 0
DWIDTH 12 0
BBX 10 14 1 0
BITMAP
3F00
0000
0000
0000
1E00
7300
6100
4180
0380
7F80
4180
C380
4780
79C0
ENDCHAR
STARTCHAR Abreve
ENCODING 258
SWIDTH 600 0
DWIDTH 12 0
BBX 10 18 1 0
BITMAP
2100
3300
1E00
0000
0C00
1E00
1E00
1200
1200
3300
3100
2100
7F80
6180
4080
4080
C0C0
C0C0
ENDCHAR
STARTCHAR abreve
ENCODING 259
SWIDTH 600 0
DWIDTH 12 0
BBX 10 14 1 0
BITMAP
2300
3200
1C00
0000
1E00
7300
4100
4180
0780
7F80
4180
C380
4780
79C0
ENDCHAR
STARTCHAR Aogonek
ENCODING 260
SWIDTH 600 0
DWIDTH 12 0
BBX 10 18 1 -4
BITMAP
0C00
1E00
1E00
1200
1200
3300
3100
2100
7F80
6180
4080
4080
C0C0
C0C0
0080
0100
0100
01C0
ENDCHAR
STARTCHAR aogonek
ENCODING 261
SWIDTH 600 0
DWIDTH 12 0
BBX 10 14 1 -4
BITMAP
1E00
7300
6100
4180
0380
7F80
4180
C380
4780
79C0
00C0
0100
0100
01C0
ENDCHAR
STARTCHAR Cacute
ENCODING 262
SWIDTH 600 0
DWIDTH 12 0
BBX 10 18 1 0
BITMAP
0700
0600
0800
0000
1E00
7380
4080
4080
C0C0
C000
C000
C000
C000
C0C0
4080
4080
7380
1E00
ENDCHAR
STARTCHAR cacute
ENCODING 263
SWIDTH 600 0
DWIDTH 12 0
BBX 8 14 2 0
BITMAP
0C
08
18
00
3C
66
C3
81
80
80
80
C3
66
3C
ENDCHAR
STARTCHAR Ccircumflex
ENCODING 264
SWIDTH 600 0
DWIDTH 12 0
BBX 10 18 1 0
BITMAP
0C00
1E00
3300
0000
1E00
7380
4080
4080
C0C0
C000
C000
C000
C000
C0C0
4080
4080
7380
1E00
ENDCHAR
STARTCHAR ccircumflex
ENCODING 265
SWIDTH 600 0
DWIDTH 12 0
BBX 8 14 2 0
BITMAP
18
3C
66
00
3C
66
C3
81
80
80
80
C3
66
3C
ENDCHAR
STARTCHAR Cdotaccent
ENCODING 266
SWIDTH 600 0
DWIDTH 12 0
BBX 10 17 1 0
BITMAP
0C00
0C00
0000
1E00
7380
4080
4080
C0C0
C000
C000
C000
C000
C0C0
4080
4080
7380
1E00
ENDCHAR
STARTCHAR cdotaccent
ENCODING 267
SWIDTH 600 0
DWIDTH 12 0
BBX 8 14 2 0
BITMAP
18
18
00
00
3C
66
C3
81
80
80
80
C3
66
3C
ENDCHAR
STARTCHAR Ccaron
ENCODING 268
SWIDTH 600 0
DWIDTH 12 0
BBX 10 17 1 0
BITMAP
3300
0C00
0000
1E00
7380
4080
4080
C0C0
C000
C000
C000
C000
C0C0
4080
4080
7380
1E00
ENDCHAR
STARTCHAR ccaron
ENCODING 269
SWIDTH 600 0
DWIDTH 12 0
BBX 8 14 2 0
BITMAP
66
3C
18
00
3C
66
C3
81
80
80
80
C3
66
3C
ENDCHAR
STARTCHAR Dcaron
ENCODING 270
SWIDTH 600 0
DWIDTH 12 0
BBX 9 18 2 0
BITMAP
6600
3C00
1800
0000
FC00
8700
8100
8100
8180
8180
8180
8180
8180
8180
8100
8100
8700
FC00
ENDCHAR
STARTCHAR dcaron
ENCODING 271
SWIDTH 600 0
DWIDTH 12 0
BBX 11 15 1 0
BITMAP
0160
0160
0120
0140
0100
3900
6500
C300
8100
8100
8100
C100
C300
6500
3900
ENDCHAR
STARTCHAR Dcroat
ENCODING 272
SWIDTH 600 0
DWIDTH 12 0
BBX 11 14 0 0
BITMAP
3F00
21C0
20C0
2040
2040
2060
2060
FC60
2060
2060
2040
2040
21C0
3F00
ENDCHAR
STARTCHAR dcroat
ENCODING 273
SWIDTH 600 0
DWIDTH 12 0
BBX 10 15 2 0
BITMAP
0100
0100
0FC0
0100
0100
7900
E500
C300
8300
8100
8100
8300
C300
E500
7900
ENDCHAR
STARTCHAR Emacron
ENCODING 274
SWIDTH 600 0
DWIDTH 12 0
BBX 9 17 2 0
BITMAP
7E00
0000
0000
FF80
C000
C000
C000
C000
C000
FE00
C000
C000
C000
C000
C000
C000
FF80
ENDCHAR
STARTCHAR emacron
ENCODING 275
SWIDTH 600 0
DWIDTH 12 0
BBX 8 14 2 0
BITMAP
7E
00
00
00
3C
66
C3
81
FF
80
80
C3
66
3C
ENDCHAR
STARTCHAR Ebreve
ENCODING 276
SWIDTH 600 0
DWIDTH 12 0
BBX 9 18 2 0
BITMAP
6200
2600
3C00
0000
FF80
C000
C000
C000
C000
C000
FE00
C000
C000
C000
C000
C000
C000
FF80
ENDCHAR
STARTCHAR ebreve
ENCODING 277
SWIDTH 600 0
DWIDTH 12 0
BBX 8 14 2 0
BITMAP
42
66
3C
00
3C
66
C3
81
FF
80
80
C3
66
3C
ENDCHAR
STARTCHAR Edotaccent
ENCODING 278
SWIDTH 600 0
DWIDTH 12 0
BBX 9 18 2 0
BITMAP
1800
1800
0000
0000
FF80
C000
C000
C000
C000
C000
FE00
C000
C000
C000
C000
C000
C000
FF80
ENDCHAR
STARTCHAR edotaccent
ENCODING 279
SWIDTH 600 0
DWIDTH 12 0
BBX 8 14 2 0
BITMAP
18
18
00
00
3C
66
C3
81
FF
80
80
C3
66
3C
ENDCHAR
STARTCHAR Eogonek
ENCODING 280
SWIDTH 600 0
DWIDTH 12 0
BBX 9 18 2 -4
BITMAP
FF80
C000
C000
C000
C000
C000
FE00
C000
C000
C000
C000
C000
C000
FF80
0300
0600
0600
0780
ENDCHAR
STARTCHAR eogonek
ENCODING 281
SWIDTH 600 0
DWIDTH 12 0
BBX 8 13 2 -3
BITMAP
3C
66
C3
81
FF
80
80
C3
66
3C
18
10
1C
ENDCHAR
STARTCHAR Ecaron
ENCODING 282
SWIDTH 600 0
DWIDTH 12 0
BBX 9 18 2 0
BITMAP
6600
3C00
1800
0000
FF80
C000
C000
C000
C000
C000
FE00
C000
C000
C000
C000
C000
C000
FF80
ENDCHAR
STARTCHAR ecaron
ENCODING 283
SWIDTH 600 0
DWIDTH 12 0
BBX 8 14 2 0
BITMAP
66
3C
18
00
3C
66
C3
81
FF
80
80
C3
66
3C
ENDCHAR
STARTCHAR Gcircumflex
ENCODING 284
SWIDTH 600 0
DWIDTH 12 0
BBX 10 18 1 0
BITMAP
0C00
1E00
3300
0000
1E00
7380
4080
4080
C0C0
C000
C000
C3C0
C0C0
C0C0
40C0
41C0
73C0
3EC0
ENDCHAR
STARTCHAR gcircumflex
ENCODING 285
SWIDTH 600 0
DWIDTH 12 0
BBX 8 18 2 -4
BITMAP
18
3C
66
00
79
E5
C3
83
81
81
83
C3
E5
79
01
01
03
FE
ENDCHAR
STARTCHAR Gbreve
ENCODING 286
SWIDTH 600 0
DWIDTH 12 0
BBX 10 18 1 0
BITMAP
2100
3300
1E00
0000
1E00
7380
4080
4080
C0C0
C000
C000
C3C0
C0C0
C0C0
40C0
41C0
73C0
3EC0
ENDCHAR
STARTCHAR gbreve
ENCODING 287
SWIDTH 600 0
DWIDTH 12 0
BBX 8 18 2 -4
BITMAP
42
66
3C
00
79
E5
C3
83
81
81
83
C3
E5
79
01
01
03
FE
ENDCHAR
STARTCHAR Gdotaccent
ENCODING 288
SWIDTH 600 0
DWIDTH 12 0
BBX 10 17 1 0
BITMAP
0C00
0C00
0000
1E00
7380
4080
4080
C0C0
C000
C000
C3C0
C0C0
C0C0
40C0
41C0
73C0
3EC0
ENDCHAR
STARTCHAR gdotaccent
ENCODING 289
SWIDTH 600 0
DWIDTH 12 0
BBX 8 18 2 -4
BITMAP
18
18
00
00
79
E5
C3
83
81
81
83
C3
E5
79
01
01
03
FE
ENDCHAR
STARTCHAR uni0122
ENCODING 290
SWIDTH 600 0
DWIDTH 12 0
BBX 10 19 1 -5
BITMAP
1E00
7380
4080
4080
C0C0
C000
C000
C3C0
C0C0
C0C0
40C0
41C0
73C0
3EC0
0000
0C00
0C00
0400
0800
ENDCHAR
STARTCHAR uni0123
ENCODING 291
SWIDTH 600 0
DWIDTH 12 0
BBX 8 19 2 -4
BITMAP
08
10
18
18
00
79
E5
C3
83
81
81
83
C3
E5
79
01
01
03
FE
ENDCHAR
STARTCHAR Hcircumflex
ENCODING 292
SWIDTH 600 0
DWIDTH 12 0
BBX 8 18 2 0
BITMAP
18
3C
66
00
81
81
81
81
81
81
81
FF
81
81
81
81
81
81
ENDCHAR
STARTCHAR hcircumflex
ENCODING 293
SWIDTH 600 0
DWIDTH 12 0
BBX 10 19 0 0
BITMAP
2000
7800
CC00
0000
2000
2000
2000
2000
2000
2780
29C0
30C0
2040
2040
2040
2040
2040
2040
2040
ENDCHAR
STARTCHAR Hbar
ENCODING 294
SWIDTH 600 0
DWIDTH 12 0
BBX 10 14 1 0
BITMAP
4080
4080
4080
FFC0
4080
4080
7F80
4080
4080
4080
4080
4080
4080
4080
ENDCHAR
STARTCHAR hbar
ENCODING 295
SWIDTH 600 0
DWIDTH 12 0
BBX 10 15 0 0
BITMAP
2000
2000
FC00
2000
2000
2780
29C0
30C0
2040
2040
2040
2040
2040
2040
2040
ENDCHAR
STARTCHAR Itilde
ENCODING 296
SWIDTH 600 0
DWIDTH 12 0
BBX 8 18 2 0
BITMAP
72
5E
00
00
FF
18
18
18
18
18
18
18
18
18
18
18
18
FF
ENDCHAR
STARTCHAR itilde
ENCODING 297
SWIDTH 600 0
DWIDTH 12 0
BBX 9 15 2 0
BITMAP
3100
7900
4F00
0000
0000
F800
0800
0800
0800
0800
0800
0800
0800
0800
0780
ENDCHAR
STARTCHAR Imacron
ENCODING 298
SWIDTH 600 0
DWIDTH 12 0
BBX 8 17 2 0
BITMAP
3C
00
00
FF
18
18
18
18
18
18
18
18
18
18
18
18
FF
ENDCHAR
STARTCHAR imacron
ENCODING 299
SWIDTH 600 0
DWIDTH 12 0
BBX 9 14 2 0
BITMAP
7F00
0000
0000
0000
F800
0800
0800
0800
0800
0800
0800
0800
0800
0780
ENDCHAR
STARTCHAR Ibreve
ENCODING 300
SWIDTH 600 0
DWIDTH 12 0
BBX 8 18 2 0
BITMAP
42
66
3C
00
FF
18
18
18
18
18
18
18
18
18
18
18
18
FF
ENDCHAR
STARTCHAR ibreve
ENCODING 301
SWIDTH 600 0
DWIDTH 12 0
BBX 9 15 2 0
BITMAP
2200
2200
3E00
0000
0000
F800
0800
0800
0800
0800
0800
0800
0800
0800
0780
ENDCHAR
STARTCHAR Iogonek
ENCODING 302
SWIDTH 600 0
DWIDTH 12 0
BBX 8 18 2 -4
BITMAP
FF
18
18
18
18
18
18
18
18
18
18
18
18
FF
02
04
04
07
ENDCHAR
STARTCHAR iogonek
ENCODING 303
SWIDTH 600 0
DWIDTH 12 0
BBX 9 18 2 -4
BITMAP
1C00
1C00
0000
0000
F800
0800
0800
0800
0800
0800
0800
0800
0800
0780
0100
0200
0200
0380
ENDCHAR
STARTCHAR Idotaccent
ENCODING 304
SWIDTH 600 0
DWIDTH 12 0
BBX 8 18 2 0
BITMAP
18
18
00
00
FF
18
18
18
18
18
18
18
18
18
18
18
18
FF
ENDCHAR
STARTCHAR dotlessi
ENCODING 305
SWIDTH 600 0
DWIDTH 12 0
BBX 9 10 2 0
BITMAP
F800
0800
0800
0800
0800
0800
0800
0800
0800
0780
ENDCHAR
STARTCHAR IJ
ENCODING 306
SWIDTH 600 0
DWIDTH 12 0
BBX 9 14 2 0
BITMAP
8F80
8180
8180
8180
8180
8180
8180
8180
B180
B180
B180
9100
9B00
8E00
ENDCHAR
STARTCHAR ij
ENCODING 307
SWIDTH 600 0
DWIDTH 12 0
BBX 8 19 2 -4
BITMAP
C3
C3
00
00
00
C3
C3
C3
C3
C3
C3
C3
C3
C3
C3
03
03
02
1E
ENDCHAR
STARTCHAR Jcircumflex
ENCODING 308
SWIDTH 600 0
DWIDTH 12 0
BBX 8 18 2 0
BITMAP
0C
1E
33
00
3F
01
01
01
01
01
01
81
81
81
81
C3
E7
3C
ENDCHAR
STARTCHAR jcircumflex
ENCODING 309
SWIDTH 600 0
DWIDTH 12 0
BBX 9 18 2 -4
BITMAP
0600
0F00
1980
0000
FE00
0600
0600
0600
0600
0600
0600
0600
0600
0600
0600
0600
0600
FC00
ENDCHAR
STARTCHAR uni0136
ENCODING 310
SWIDTH 600 0
DWIDTH 12 0
BBX 9 19 2 -5
BITMAP
8180
8300
8600
8400
8C00
9800
B800
AC00
E400
C600
8200
8300
8100
8180
0000
1800
1800
0800
1000
ENDCHAR
STARTCHAR uni0137
ENCODING 311
SWIDTH 600 0
DWIDTH 12 0
BBX 9 20 2 -5
BITMAP
C000
C000
C000
C000
C000
C300
C600
CC00
D800
F800
EC00
C600
C200
C300
C180
0000
1800
1800
0800
1000
ENDCHAR
STARTCHAR kgreenlandic
ENCODING 312
SWIDTH 600 0
DWIDTH 12 0
BBX 8 10 2 0
BITMAP
C3
C6
CC
D8
F8
EC
C4
C6
C3
C1
ENDCHAR
STARTCHAR Lacute
ENCODING 313
SWIDTH 600 0
DWIDTH 12 0
BBX 9 18 2 0
BITMAP
3000
6000
C000
0000
C000
C000
C000
C000
C000
C000
C000
C000
C000
C000
C000
C000
C000
FF80
ENDCHAR
STARTCHAR lacute
ENCODING 314
SWIDTH 600 0
DWIDTH 12 0
BBX 9 19 1 0
BITMAP
0600
0C00
1800
0000
F800
0800
0800
0800
0800
0800
0800
0800
0800
0800
0800
0800
0800
0800
0F80
ENDCHAR
STARTCHAR uni013B
ENCODING 315
SWIDTH 600 0
DWIDTH 12 0
BBX 9 19 2 -5
BITMAP
C000
C000
C000
C000
C000
C000
C000
C000
C000
C000
C000
C000
C000
FF80
0000
1800
1800
0800
0800
ENDCHAR
STARTCHAR uni013C
ENCODING 316
SWIDTH 600 0
DWIDTH 12 0
BBX 9 20 1 -5
BITMAP
F800
0800
0800
0800
0800
0800
0800
0800
0800
0800
0800
0800
0800
0800
0F80
0000
1C00
1C00
0800
0800
ENDCHAR
STARTCHAR Lcaron
ENCODING 317
SWIDTH 600 0
DWIDTH 12 0
BBX 9 14 2 0
BITMAP
C300
C300
C100
C200
C000
C000
C000
C000
C000
C000
C000
C000
C000
FF80
ENDCHAR
STARTCHAR lcaron
ENCODING 318
SWIDTH 600 0
DWIDTH 12 0
BBX 10 15 1 0
BITMAP
F8C0
08C0
0880
0880
0800
0800
0800
0800
0800
0800
0800
0800
0800
0800
0F80
ENDCHAR
STARTCHAR Ldot
ENCODING 319
SWIDTH 600 0
DWIDTH 12 0
BBX 9 14 2 0
BITMAP
C000
C000
C000
C000
C000
C000
C300
C300
C000
C000
C000
C000
C000
FF80
ENDCHAR
STARTCHAR ldot
ENCODING 320
SWIDTH 600 0
DWIDTH 12 0
BBX 11 15 1 0
BITMAP
F800
0800
0800
0800
0800
0800
0800
0860
0860
0800
0800
0800
0800
0800
0F80
ENDCHAR
STARTCHAR Lslash
ENCODING 321
SWIDTH 600 0
DWIDTH 12 0
BBX 10 14 1 0
BITMAP
6000
6000
6000
6000
6000
6800
F800
E000
6000
6000
6000
6000
6000
7FC0
ENDCHAR
STARTCHAR lslash
ENCODING 322
SWIDTH 600 0
DWIDTH 12 0
BBX 9 15 1 0
BITMAP
F800
0800
0800
0800
0800
0800
0B00
3E00
7800
0800
0800
0800
0800
0800
0F80
ENDCHAR
STARTCHAR Nacute
ENCODING 323
SWIDTH 600 0
DWIDTH 12 0
BBX 8 18 2 0
BITMAP
06
0C
10
00
C1
E1
A1
A1
B1
91
99
99
89
8D
85
85
87
83
ENDCHAR
STARTCHAR nacute
ENCODING 324
SWIDTH 600 0
DWIDTH 12 0
BBX 8 14 2 0
BITMAP
0C
08
18
00
9E
A7
C3
81
81
81
81
81
81
81
ENDCHAR
STARTCHAR uni0145
ENCODING 325
SWIDTH 600 0
DWIDTH 12 0
BBX 8 19 2 -5
BITMAP
C1
E1
A1
A1
B1
91
99
99
89
8D
85
85
87
83
00
18
18
08
10
ENDCHAR
STARTCHAR uni0146
ENCODING 326
SWIDTH 600 0
DWIDTH 12 0
BBX 8 15 2 -5
BITMAP
9E
A7
C3
81
81
81
81
81
81
81
00
18
18
08
18
ENDCHAR
STARTCHAR Ncaron
ENCODING 327
SWIDTH 600 0
DWIDTH 12 0
BBX 8 18 2 0
BITMAP
66
3C
18
00
C1
E1
A1
A1
B1
91
99
99
89
8D
85
85
87
83
ENDCHAR
STARTCHAR ncaron
ENCODING 328
SWIDTH 600 0
DWIDTH 12 0
BBX 8 14 2 0
BITMAP
66
3C
18
00
9E
A7
C3
81
81
81
81
81
81
81
ENDCHAR
STARTCHAR napostrophe
ENCODING 329
SWIDTH 600 0
DWIDTH 12 0
BBX 9 15 1 0
BITMAP
C000
C000
4000
4000
0000
4F00
5380
6180
4080
4080
4080
4080
4080
4080
4080
ENDCHAR
STARTCHAR Eng
ENCODING 330
SWIDTH 600 0
DWIDTH 12 0
BBX 8 18 2 -4
BITMAP
C1
E1
A1
A1
B1
91
99
99
89
8D
85
85
87
83
01
01
01
1E
ENDCHAR
STARTCHAR eng
ENCODING 331
SWIDTH 600 0
DWIDTH 12 0
BBX 8 14 2 -4
BITMAP
9E
A7
C3
81
81
81
81
81
81
81
01
01
03
0E
ENDCHAR
STARTCHAR Omacron
ENCODING 332
SWIDTH 600 0
DWIDTH 12 0
BBX 10 17 1 0
BITMAP
3F00
0000
0000
1E00
7380
4080
4080
C0C0
C0C0
C0C0
C0C0
C0C0
C0C0
4080
4080
7380
1E00
ENDCHAR
STARTCHAR omacron
ENCODING 333
SWIDTH 600 0
DWIDTH 12 0
BBX 8 14 2 0
BITMAP
7E
00
00
00
3C
66
C3
81
81
81
81
C3
66
3C
ENDCHAR
STARTCHAR Obreve
ENCODING 334
SWIDTH 600 0
DWIDTH 12 0
BBX 10 18 1 0
BITMAP
2100
3300
1E00
0000
1E00
7380
4080
4080
C0C0
C0C0
C0C0
C0C0
C0C0
C0C0
4080
4080
7380
1E00
ENDCHAR
STARTCHAR obreve
ENCODING 335
SWIDTH 600 0
DWIDTH 12 0
BBX 8 14 2 0
BITMAP
42
66
3C
00
3C
66
C3
81
81
81
81
C3
66
3C
ENDCHAR
STARTCHAR Ohungarumlaut
ENCODING 336
SWIDTH 600 0
DWIDTH 12 0
BBX 10 18 1 0
BITMAP
0D80
1B00
3600
0000
1E00
7380
4080
4080
C0C0
C0C0
C0C0
C0C0
C0C0
C0C0
4080
4080
7380
1E00
ENDCHAR
STARTCHAR ohungarumlaut
ENCODING 337
SWIDTH 600 0
DWIDTH 12 0
BBX 8 14 2 0
BITMAP
1B
32
26
00
3C
66
C3
81
81
81
81
C3
66
3C
ENDCHAR
STARTCHAR OE
ENCODING 338
SWIDTH 600 0
DWIDTH 12 0
BBX 11 14 1 0
BITMAP
77E0
CE00
8600
8600
8600
8600
87C0
8600
8600
8600
8600
8600
CE00
77E0
ENDCHAR
STARTCHAR oe
ENCODING 339
SWIDTH 600 0
DWIDTH 12 0
BBX 10 10 1 0
BITMAP
7380
DEC0
8C40
8C40
8FC0
8C00
8C00
8C40
DEC0
7380
ENDCHAR
STARTCHAR Racute
ENCODING 340
SWIDTH 600 0
DWIDTH 12 0
BBX 9 18 2 0
BITMAP
0C00
1800
3000
0000
FE00
C300
C100
C180
C180
C180
C300
FE00
C800
CC00
C400
C600
C300
C100
ENDCHAR
STARTCHAR racute
ENCODING 341
SWIDTH 600 0
DWIDTH 12 0
BBX 9 14 2 0
BITMAP
1800
3000
2000
0000
F780
3800
3000
3000
3000
3000
3000
3000
3000
FF00
ENDCHAR
STARTCHAR uni0156
ENCODING 342
SWIDTH 600 0
DWIDTH 12 0
BBX 9 19 2 -5
BITMAP
FE00
C300
C100
C180
C180
C180
C300
FE00
C800
CC00
C400
C600
C300
C100
0000
1800
1800
1800
1000
ENDCHAR
STARTCHAR uni0157
ENCODING 343
SWIDTH 600 0
DWIDTH 12 0
BBX 9 15 2 -5
BITMAP
F780
3800
3000
3000
3000
3000
3000
3000
3000
FF00
0000
3000
3000
1000
2000
ENDCHAR
STARTCHAR Rcaron
ENCODING 344
SWIDTH 600 0
DWIDTH 12 0
BBX 9 18 2 0
BITMAP
6600
3C00
1800
0000
FE00
C300
C100
C180
C180
C180
C300
FE00
C800
CC00
C400
C600
C300
C100
ENDCHAR
STARTCHAR rcaron
ENCODING 345
SWIDTH 600 0
DWIDTH 12 0
BBX 9 14 2 0
BITMAP
CC00
7800
3000
0000
F780
3800
3000
3000
3000
3000
3000
3000
3000
FF00
ENDCHAR
STARTCHAR Sacute
ENCODING 346
SWIDTH 600 0
DWIDTH 12 0
BBX 10 18 1 0
BITMAP
0600
0C00
0800
0000
3E00
7300
4180
4080
4000
6000
3C00
0700
0180
00C0
C0C0
4080
7380
3F00
ENDCHAR
STARTCHAR sacute
ENCODING 347
SWIDTH 600 0
DWIDTH 12 0
BBX 8 14 2 0
BITMAP
0C
08
18
00
7C
C6
83
C0
78
0F
01
81
C3
3E
ENDCHAR
STARTCHAR Scircumflex
ENCODING 348
SWIDTH 600 0
DWIDTH 12 0
BBX 10 18 1 0
BITMAP
0C00
1E00
3300
0000
3E00
7300
4180
4080
4000
6000
3C00
0700
0180
00C0
C0C0
4080
7380
3F00
ENDCHAR
STARTCHAR scircumflex
ENCODING 349
SWIDTH 600 0
DWIDTH 12 0
BBX 8 14 2 0
BITMAP
18
3C
66
00
7C
C6
83
C0
78
0F
01
81
C3
3E
ENDCHAR
STARTCHAR Scedilla
ENCODING 350
SWIDTH 600 0
DWIDTH 12 0
BBX 10 18 1 -4
BITMAP
3E00
7300
4180
4080
4000
6000
3C00
0700
0180
00C0
C0C0
4080
7180
3F00
0800
0E00
0200
1E00
ENDCHAR
STARTCHAR scedilla
ENCODING 351
SWIDTH 600 0
DWIDTH 12 0
BBX 8 14 2 -4
BITMAP
7C
C6
83
C0
78
0E
01
81
C3
7E
10
1C
04
38
ENDCHAR
STARTCHAR Scaron
ENCODING 352
SWIDTH 600 0
DWIDTH 12 0
BBX 10 17 1 0
BITMAP
3600
1C00
0000
3E00
7300
4180
4080
4000
6000
3C00
0700
0180
00C0
C0C0
4080
7380
3F00
ENDCHAR
STARTCHAR scaron
ENCODING 353
SWIDTH 600 0
DWIDTH 12 0
BBX 8 14 2 0
BITMAP
66
3C
18
00
7C
C6
83
C0
78
0F
01
81
C3
3E
ENDCHAR
STARTCHAR uni0162
ENCODING 354
SWIDTH 600 0
DWIDTH 12 0
BBX 10 18 1 -4
BITMAP
FFC0
0C00
0C00
0C00
0C00
0C00
0C00
0C00
0C00
0C00
0C00
0C00
0C00
0C00
0800
0E00
0200
1C00
ENDCHAR
STARTCHAR uni0163
ENCODING 355
SWIDTH 600 0
DWIDTH 12 0
BBX 9 16 1 -4
BITMAP
1800
1800
FF80
1800
1800
1800
1800
1800
1800
1800
1800
0F80
0800
0E00
0200
1E00
ENDCHAR
STARTCHAR Tcaron
ENCODING 356
SWIDTH 600 0
DWIDTH 12 0
BBX 10 18 1 0
BITMAP
3300
1E00
0C00
0000
FFC0
0C00
0C00
0C00
0C00
0C00
0C00
0C00
0C00
0C00
0C00
0C00
0C00
0C00
ENDCHAR
STARTCHAR tcaron
ENCODING 357
SWIDTH 600 0
DWIDTH 12 0
BBX 9 15 1 0
BITMAP
0300
0300
0900
1A00
1800
FF80
1800
1800
1800
1800
1800
1800
1800
1800
0F80
ENDCHAR
STARTCHAR Tbar
ENCODING 358
SWIDTH 600 0
DWIDTH 12 0
BBX 10 14 1 0
BITMAP
FFC0
0C00
0C00
0C00
0C00
0C00
3F00
0C00
0C00
0C00
0C00
0C00
0C00
0C00
ENDCHAR
STARTCHAR tbar
ENCODING 359
SWIDTH 600 0
DWIDTH 12 0
BBX 9 12 1 0
BITMAP
1800
1800
FF80
1800
1800
1800
7E00
1800
1800
1800
1800
0F80
ENDCHAR
STARTCHAR Utilde
ENCODING 360
SWIDTH 600 0
DWIDTH 12 0
BBX 8 18 2 0
BITMAP
72
5E
04
00
81
81
81
81
81
81
81
81
81
81
81
C3
E7
3C
ENDCHAR
STARTCHAR utilde
ENCODING 361
SWIDTH 600 0
DWIDTH 12 0
BBX 8 15 2 0
BITMAP
72
5A
CE
00
00
81
81
81
81
81
81
81
C3
E5
79
ENDCHAR
STARTCHAR Umacron
ENCODING 362
SWIDTH 600 0
DWIDTH 12 0
BBX 8 17 2 0
BITMAP
7E
00
00
81
81
81
81
81
81
81
81
81
81
81
C3
E7
3C
ENDCHAR
STARTCHAR umacron
ENCODING 363
SWIDTH 600 0
DWIDTH 12 0
BBX 8 14 2 0
BITMAP
7E
00
00
00
81
81
81
81
81
81
81
C3
E5
79
ENDCHAR
STARTCHAR Ubreve
ENCODING 364
SWIDTH 600 0
DWIDTH 12 0
BBX 8 18 2 0
BITMAP
42
66
3C
00
81
81
81
81
81
81
81
81
81
81
81
C3
E7
3C
ENDCHAR
STARTCHAR ubreve
ENCODING 365
SWIDTH 600 0
DWIDTH 12 0
BBX 8 15 2 0
BITMAP
42
66
3C
00
00
81
81
81
81
81
81
81
C3
E5
79
ENDCHAR
STARTCHAR Uring
ENCODING 366
SWIDTH 600 0
DWIDTH 12 0
BBX 8 20 2 0
BITMAP
1C
24
24
24
1C
00
81
81
81
81
81
81
81
81
81
81
81
C3
E7
3C
ENDCHAR
STARTCHAR uring
ENCODING 367
SWIDTH 600 0
DWIDTH 12 0
BBX 8 16 2 0
BITMAP
3C
24
24
3C
00
00
81
81
81
81
81
81
81
C3
E5
79
ENDCHAR
STARTCHAR Uhungarumlaut
ENCODING 368
SWIDTH 600 0
DWIDTH 12 0
BBX 8 18 2 0
BITMAP
1B
36
6C
00
81
81
81
81
81
81
81
81
81
81
81
C3
E7
3C
ENDCHAR
STARTCHAR uhungarumlaut
ENCODING 369
SWIDTH 600 0
DWIDTH 12 0
BBX 8 14 2 0
BITMAP
1B
36
66
00
81
81
81
81
81
81
81
C3
E5
79
ENDCHAR
STARTCHAR Uogonek
ENCODING 370
SWIDTH 600 0
DWIDTH 12 0
BBX 8 17 2 -3
BITMAP
81
81
81
81
81
81
81
81
81
81
81
C3
E7
3C
18
10
1C
ENDCHAR
STARTCHAR uogonek
ENCODING 371
SWIDTH 600 0
DWIDTH 12 0
BBX 8 14 2 -4
BITMAP
81
81
81
81
81
81
81
C3
E5
79
02
04
04
07
ENDCHAR
STARTCHAR Wcircumflex
ENCODING 372
SWIDTH 600 0
DWIDTH 12 0
BBX 10 18 1 0
BITMAP
0C00
1E00
3300
0000
8C40
8C40
8C40
9C40
96C0
D2C0
D2C0
D2C0
D280
5280
7280
7380
6180
6180
ENDCHAR
STARTCHAR wcircumflex
ENCODING 373
SWIDTH 600 0
DWIDTH 12 0
BBX 10 14 1 0
BITMAP
0C00
1E00
3300
0000
8C40
8C40
8C40
9CC0
D2C0
5280
5280
5280
7380
6180
ENDCHAR
STARTCHAR Ycircumflex
ENCODING 374
SWIDTH 600 0
DWIDTH 12 0
BBX 10 18 1 0
BITMAP
0C00
1E00
3300
0000
C0C0
4080
6180
2100
3300
1200
1E00
0C00
0C00
0C00
0C00
0C00
0C00
0C00
ENDCHAR
STARTCHAR ycircumflex
ENCODING 375
SWIDTH 600 0
DWIDTH 12 0
BBX 10 18 1 -4
BITMAP
0C00
1E00
3300
0000
C0C0
4080
6180
2100
2100
3300
1200
1200
1E00
0C00
0C00
0800
1800
7000
ENDCHAR
STARTCHAR Ydieresis
ENCODING 376
SWIDTH 600 0
DWIDTH 12 0
BBX 10 18 1 0
BITMAP
3300
3300
0000
0000
C0C0
4080
6180
2100
3300
1200
1E00
0C00
0C00
0C00
0C00
0C00
0C00
0C00
ENDCHAR
STARTCHAR Zacute
ENCODING 377
SWIDTH 600 0
DWIDTH 12 0
BBX 10 18 1 0
BITMAP
0300
0600
0C00
0000
7F80
0080
0180
0300
0200
0600
0400
0800
1800
1000
2000
6000
4000
FFC0
ENDCHAR
STARTCHAR zacute
ENCODING 378
SWIDTH 600 0
DWIDTH 12 0
BBX 8 14 2 0
BITMAP
0C
08
18
00
FF
03
06
0C
08
10
20
60
C0
FF
ENDCHAR
STARTCHAR Zdotaccent
ENCODING 379
SWIDTH 600 0
DWIDTH 12 0
BBX 10 18 1 0
BITMAP
0C00
0C00
0000
0000
7F80
0080
0180
0300
0200
0600
0400
0800
1800
1000
2000
6000
4000
FFC0
ENDCHAR
STARTCHAR zdotaccent
ENCODING 380
SWIDTH 600 0
DWIDTH 12 0
BBX 8 14 2 0
BITMAP
18
18
00
00
FF
03
06
0C
08
10
20
60
C0
FF
ENDCHAR
STARTCHAR Zcaron
ENCODING 381
SWIDTH 600 0
DWIDTH 12 0
BBX 10 18 1 0
BITMAP
3300
1E00
0C00
0000
7F80
0080
0180
0300
0200
0600
0400
0800
1800
1000
2000
6000
4000
FFC0
ENDCHAR
STARTCHAR zcaron
ENCODING 382
SWIDTH 600 0
DWIDTH 12 0
BBX 8 14 2 0
BITMAP
66
3C
18
00
FF
03
06
0C
08
10
20
60
C0
FF
ENDCHAR
STARTCHAR uni018F
ENCODING 399
SWIDTH 600 0
DWIDTH 12 0
BBX 10 14 1 0
BITMAP
1E00
7380
4080
4080
C0C0
00C0
00C0
FFC0
C0C0
C0C0
4080
4080
7380
1E00
ENDCHAR
STARTCHAR uni019D
ENCODING 413
SWIDTH 600 0
DWIDTH 12 0
BBX 10 18 0 -4
BITMAP
3040
3840
2840
2840
2C40
2440
2640
2640
2240
2340
2140
2140
21C0
20C0
2000
2000
2000
E000
ENDCHAR
STARTCHAR Gcaron
ENCODING 486
SWIDTH 600 0
DWIDTH 12 0
BBX 10 17 1 0
BITMAP
3300
0C00
0000
1E00
7380
4080
4080
C0C0
C000
C000
C3C0
C0C0
C0C0
40C0
41C0
73C0
3EC0
ENDCHAR
STARTCHAR gcaron
ENCODING 487
SWIDTH 600 0
DWIDTH 12 0
BBX 8 18 2 -4
BITMAP
66
3C
18
00
79
E5
C3
83
81
81
83
C3
E5
79
01
01
03
FE
ENDCHAR
STARTCHAR uni01EA
ENCODING 490
SWIDTH 600 0
DWIDTH 12 0
BBX 10 18 1 -4
BITMAP
1E00
7380
4080
4080
C0C0
C0C0
C0C0
C0C0
C0C0
C0C0
4080
4080
7380
1E00
0C00
0800
0800
0E00
ENDCHAR
STARTCHAR uni01EB
ENCODING 491
SWIDTH 600 0
DWIDTH 12 0
BBX 8 14 2 -4
BITMAP
3C
66
C3
81
81
81
81
C3
66
3C
18
10
10
1C
ENDCHAR
STARTCHAR Aringacute
ENCODING 506
SWIDTH 600 0
DWIDTH 12 0
BBX 10 23 1 0
BITMAP
0600
0C00
0000
0E00
1200
1200
1200
0E00
0000
0C00
1E00
1E00
1200
1200
3300
3100
2100
7F80
6180
4080
4080
C0C0
C0C0
ENDCHAR
STARTCHAR aringacute
ENCODING 507
SWIDTH 600 0
DWIDTH 12 0
BBX 10 20 1 0
BITMAP
0600
0C00
0800
0000
1C00
3200
3200
1200
1C00
0000
1E00
7300
4100
4180
0780
7F80
4180
C380
4780
79C0
ENDCHAR
STARTCHAR AEacute
ENCODING 508
SWIDTH 600 0
DWIDTH 12 0
BBX 10 18 1 0
BITMAP
0300
0600
0C00
0000
1FC0
1400
3400
2400
2400
2400
6780
6400
7C00
4400
C400
C400
8400
87C0
ENDCHAR
STARTCHAR aeacute
ENCODING 509
SWIDTH 600 0
DWIDTH 12 0
BBX 10 14 1 0
BITMAP
0600
0400
0C00
0000
7380
DEC0
8C40
0C40
3FC0
FC00
8C00
8C40
9EC0
F380
ENDCHAR
STARTCHAR Oslashacute
ENCODING 510
SWIDTH 600 0
DWIDTH 12 0
BBX 10 18 1 0
BITMAP
0700
0600
0800
0000
1E80
7380
4180
4180
C2C0
C6C0
C4C0
C8C0
D8C0
D0C0
6080
6080
7380
5E00
ENDCHAR
STARTCHAR oslashacute
ENCODING 511
SWIDTH 600 0
DWIDTH 12 0
BBX 8 14 2 0
BITMAP
0C
08
18
00
3D
67
C7
85
89
91
B1
E3
E6
BC
ENDCHAR
STARTCHAR uni0218
ENCODING 536
SWIDTH 600 0
DWIDTH 12 0
BBX 10 19 1 -5
BITMAP
3E00
7300
4180
4080
4000
6000
3C00
0700
0180
00C0
C0C0
4080
7380
3F00
0000
0C00
0C00
0400
0800
ENDCHAR
STARTCHAR uni0219
ENCODING 537
SWIDTH 600 0
DWIDTH 12 0
BBX 8 15 2 -5
BITMAP
7C
C6
83
C0
78
0F
01
81
C3
3E
00
18
18
08
10
ENDCHAR
STARTCHAR uni021A
ENCODING 538
SWIDTH 600 0
DWIDTH 12 0
BBX 10 19 1 -5
BITMAP
FFC0
0C00
0C00
0C00
0C00
0C00
0C00
0C00
0C00
0C00
0C00
0C00
0C00
0C00
0000
0C00
0C00
0400
0800
ENDCHAR
STARTCHAR uni021B
ENCODING 539
SWIDTH 600 0
DWIDTH 12 0
BBX 9 17 1 -5
BITMAP
1800
1800
FF80
1800
1800
1800
1800
1800
1800
1800
1800
0F80
0000
0C00
0C00
0400
0800
ENDCHAR
STARTCHAR uni0232
ENCODING 562
SWIDTH 600 0
DWIDTH 12 0
BBX 10 17 1 0
BITMAP
3F00
0000
0000
C0C0
4080
6180
2100
3300
1200
1E00
0C00
0C00
0C00
0C00
0C00
0C00
0C00
ENDCHAR
STARTCHAR uni0233
ENCODING 563
SWIDTH 600 0
DWIDTH 12 0
BBX 10 18 1 -4
BITMAP
3F00
0000
0000
0000
C0C0
4080
6180
2100
2100
3300
1200
1200
1E00
0C00
0C00
0800
1800
7000
ENDCHAR
STARTCHAR uni0237
ENCODING 567
SWIDTH 600 0
DWIDTH 12 0
BBX 7 14 2 -4
BITMAP
FE
06
06
06
06
06
06
06
06
06
06
06
06
FC
ENDCHAR
STARTCHAR uni0259
ENCODING 601
SWIDTH 600 0
DWIDTH 12 0
BBX 8 10 2 0
BITMAP
3C
66
C3
01
01
FF
81
C3
E6
3C
ENDCHAR
STARTCHAR uni0272
ENCODING 626
SWIDTH 600 0
DWIDTH 12 0
BBX 10 14 0 -4
BITMAP
2780
29C0
30C0
2040
2040
2040
2040
2040
2040
2040
2000
2000
2000
E000
ENDCHAR
STARTCHAR circumflex
ENCODING 710
SWIDTH 600 0
DWIDTH 12 0
BBX 6 3 3 11
BITMAP
30
78
CC
ENDCHAR
STARTCHAR caron
ENCODING 711
SWIDTH 600 0
DWIDTH 12 0
BBX 6 3 3 11
BITMAP
CC
78
30
ENDCHAR
STARTCHAR breve
ENCODING 728
SWIDTH 600 0
DWIDTH 12 0
BBX 6 3 3 11
BITMAP
84
CC
78
ENDCHAR
STARTCHAR dotaccent
ENCODING 729
SWIDTH 600 0
DWIDTH 12 0
BBX 2 2 5 12
BITMAP
C0
C0
ENDCHAR
STARTCHAR ring
ENCODING 730
SWIDTH 600 0
DWIDTH 12 0
BBX 4 5 4 11
BITMAP
60
90
90
90
E0
ENDCHAR
STARTCHAR ogonek
ENCODING 731
SWIDTH 600 0
DWIDTH 12 0
BBX 4 4 4 -4
BITMAP
20
40
C0
70
ENDCHAR
STARTCHAR tilde
ENCODING 732
SWIDTH 600 0
DWIDTH 12 0
BBX 6 3 3 12
BITMAP
E4
B4
9C
ENDCHAR
STARTCHAR hungarumlaut
ENCODING 733
SWIDTH 600 0
DWIDTH 12 0
BBX 6 3 4 11
BITMAP
6C
C8
98
ENDCHAR
STARTCHAR gravecomb
ENCODING 768
SWIDTH 0 0
DWIDTH 0 0
BBX 3 3 -8 11
BITMAP
C0
40
60
ENDCHAR
STARTCHAR acutecomb
ENCODING 769
SWIDTH 0 0
DWIDTH 0 0
BBX 3 3 -7 11
BITMAP
60
40
C0
ENDCHAR
STARTCHAR uni0302
ENCODING 770
SWIDTH 0 0
DWIDTH 0 0
BBX 6 3 -9 11
BITMAP
30
78
CC
ENDCHAR
STARTCHAR tildecomb
ENCODING 771
SWIDTH 0 0
DWIDTH 0 0
BBX 7 3 -10 12
BITMAP
72
5A
CE
ENDCHAR
STARTCHAR uni0304
ENCODING 772
SWIDTH 0 0
DWIDTH 0 0
BBX 6 1 -9 13
BITMAP
FC
ENDCHAR
STARTCHAR uni0306
ENCODING 774
SWIDTH 0 0
DWIDTH 0 0
BBX 6 3 -9 11
BITMAP
84
CC
78
ENDCHAR
STARTCHAR uni0307
ENCODING 775
SWIDTH 0 0
DWIDTH 0 0
BBX 2 2 -7 12
BITMAP
C0
C0
ENDCHAR
STARTCHAR uni0308
ENCODING 776
SWIDTH 0 0
DWIDTH 0 0
BBX 6 2 -9 12
BITMAP
CC
CC
ENDCHAR
STARTCHAR uni030A
ENCODING 778
SWIDTH 0 0
DWIDTH 0 0
BBX 4 5 -8 11
BITMAP
60
90
90
90
E0
ENDCHAR
STARTCHAR uni030B
ENCODING 779
SWIDTH 0 0
DWIDTH 0 0
BBX 6 3 -8 11
BITMAP
6C
C8
98
ENDCHAR
STARTCHAR uni030C
ENCODING 780
SWIDTH 0 0
DWIDTH 0 0
BBX 6 3 -9 11
BITMAP
CC
78
30
ENDCHAR
STARTCHAR uni0312
ENCODING 786
SWIDTH 0 0
DWIDTH 0 0
BBX 2 4 -7 11
BITMAP
40
80
C0
C0
ENDCHAR
STARTCHAR dotbelowcomb
ENCODING 803
SWIDTH 0 0
DWIDTH 0 0
BBX 2 2 -7 -4
BITMAP
C0
C0
ENDCHAR
STARTCHAR uni0326
ENCODING 806
SWIDTH 0 0
DWIDTH 0 0
BBX 2 4 -7 -5
BITMAP
C0
C0
40
80
ENDCHAR
STARTCHAR uni0327
ENCODING 807
SWIDTH 0 0
DWIDTH 0 0
BBX 4 4 -8 -4
BITMAP
40
70
10
E0
ENDCHAR
STARTCHAR uni0328
ENCODING 808
SWIDTH 0 0
DWIDTH 0 0
BBX 4 4 -8 -4
BITMAP
20
40
C0
70
ENDCHAR
STARTCHAR uni0335
ENCODING 821
SWIDTH 0 0
DWIDTH 0 0
BBX 6 1 -9 9
BITMAP
FC
ENDCHAR
STARTCHAR uni00B5.dup1
ENCODING 956
SWIDTH 600 0
DWIDTH 12 0
BBX 8 14 2 -4
BITMAP
81
81
81
81
81
81
81
C3
E5
B9
80
80
80
80
ENDCHAR
STARTCHAR Wgrave
ENCODING 7808
SWIDTH 600 0
DWIDTH 12 0
BBX 10 18 1 0
BITMAP
3000
1800
0400
0000
8C40
8C40
8C40
9C40
96C0
D2C0
D2C0
D2C0
D280
5280
7280
7380
6180
6180
ENDCHAR
STARTCHAR wgrave
ENCODING 7809
SWIDTH 600 0
DWIDTH 12 0
BBX 10 14 1 0
BITMAP
1800
0800
0C00
0000
8C40
8C40
8C40
9CC0
D2C0
5280
5280
5280
7380
6180
ENDCHAR
STARTCHAR Wacute
ENCODING 7810
SWIDTH 600 0
DWIDTH 12 0
BBX 10 18 1 0
BITMAP
0700
0600
0800
0000
8C40
8C40
8C40
9C40
96C0
D2C0
D2C0
D2C0
D280
5280
7280
7380
6180
6180
ENDCHAR
STARTCHAR wacute
ENCODING 7811
SWIDTH 600 0
DWIDTH 12 0
BBX 10 14 1 0
BITMAP
0600
0400
0C00
0000
8C40
8C40
8C40
9CC0
D2C0
5280
5280
5280
7380
6180
ENDCHAR
STARTCHAR Wdieresis
ENCODING 7812
SWIDTH 600 0
DWIDTH 12 0
BBX 10 18 1 0
BITMAP
3300
3300
0000
0000
8C40
8C40
8C40
9C40
96C0
D2C0
D2C0
D2C0
D280
5280
7280
7380
6180
6180
ENDCHAR
STARTCHAR wdieresis
ENCODING 7813
SWIDTH 600 0
DWIDTH 12 0
BBX 10 14 1 0
BITMAP
3300
3300
0000
0000
8C40
8C40
8C40
9CC0
D2C0
5280
5280
5280
7380
6180
ENDCHAR
STARTCHAR uni1E9E
ENCODING 7838
SWIDTH 600 0
DWIDTH 12 0
BBX 9 14 2 0
BITMAP
FF00
8100
8200
8600
8400
8C00
8E00
8100
8180
8080
8080
8180
8300
9E00
ENDCHAR
STARTCHAR uni1EA0
ENCODING 7840
SWIDTH 600 0
DWIDTH 12 0
BBX 10 18 1 -4
BITMAP
0C00
1E00
1E00
1200
1200
3300
3100
2100
7F80
6180
4080
4080
C0C0
C0C0
0000
0000
0C00
0C00
ENDCHAR
STARTCHAR uni1EA1
ENCODING 7841
SWIDTH 600 0
DWIDTH 12 0
BBX 10 14 1 -4
BITMAP
1E00
7300
6100
4180
0380
7F80
4180
C380
4780
79C0
0000
0000
0C00
0C00
ENDCHAR
STARTCHAR uni1EB8
ENCODING 7864
SWIDTH 600 0
DWIDTH 12 0
BBX 9 18 2 -4
BITMAP
FF80
C000
C000
C000
C000
C000
FE00
C000
C000
C000
C000
C000
C000
FF80
0000
0000
1C00
1C00
ENDCHAR
STARTCHAR uni1EB9
ENCODING 7865
SWIDTH 600 0
DWIDTH 12 0
BBX 8 14 2 -4
BITMAP
3C
66
C3
81
FF
80
80
C3
66
3C
00
00
18
18
ENDCHAR
STARTCHAR uni1EBC
ENCODING 7868
SWIDTH 600 0
DWIDTH 12 0
BBX 9 18 2 0
BITMAP
7B00
5E00
0000
0000
FF80
C000
C000
C000
C000
C000
FE00
C000
C000
C000
C000
C000
C000
FF80
ENDCHAR
STARTCHAR uni1EBD
ENCODING 7869
SWIDTH 600 0
DWIDTH 12 0
BBX 8 15 2 0
BITMAP
73
5A
4E
00
00
3C
66
C3
81
FF
80
80
C3
66
3C
ENDCHAR
STARTCHAR uni1ECA
ENCODING 7882
SWIDTH 600 0
DWIDTH 12 0
BBX 8 18 2 -4
BITMAP
FF
18
18
18
18
18
18
18
18
18
18
18
18
FF
00
00
18
18
ENDCHAR
STARTCHAR uni1ECB
ENCODING 7883
SWIDTH 600 0
DWIDTH 12 0
BBX 9 19 2 -4
BITMAP
1C00
1C00
0000
0000
0000
F800
0800
0800
0800
0800
0800
0800
0800
0800
0780
0000
0000
1C00
1C00
ENDCHAR
STARTCHAR uni1ECC
ENCODING 7884
SWIDTH 600 0
DWIDTH 12 0
BBX 10 18 1 -4
BITMAP
1E00
7380
4080
4080
C0C0
C0C0
C0C0
C0C0
C0C0
C0C0
4080
4080
7380
1E00
0000
0000
0C00
0C00
ENDCHAR
STARTCHAR uni1ECD
ENCODING 7885
SWIDTH 600 0
DWIDTH 12 0
BBX 8 14 2 -4
BITMAP
3C
66
C3
81
81
81
81
C3
66
3C
00
00
18
18
ENDCHAR
STARTCHAR uni1EE4
ENCODING 7908
SWIDTH 600 0
DWIDTH 12 0
BBX 8 18 2 -4
BITMAP
81
81
81
81
81
81
81
81
81
81
81
C3
E7
3C
00
00
18
18
ENDCHAR
STARTCHAR uni1EE5
ENCODING 7909
SWIDTH 600 0
DWIDTH 12 0
BBX 8 14 2 -4
BITMAP
81
81
81
81
81
81
81
C3
E5
79
00
00
18
18
ENDCHAR
STARTCHAR Ygrave
ENCODING 7922
SWIDTH 600 0
DWIDTH 12 0
BBX 10 18 1 0
BITMAP
3000
1800
0C00
0000
C0C0
4080
6180
2100
3300
1200
1E00
0C00
0C00
0C00
0C00
0C00
0C00
0C00
ENDCHAR
STARTCHAR ygrave
ENCODING 7923
SWIDTH 600 0
DWIDTH 12 0
BBX 10 18 1 -4
BITMAP
1800
0800
0C00
0000
C0C0
4080
6180
2100
2100
3300
1200
1200
1E00
0C00
0C00
0800
1800
7000
ENDCHAR
STARTCHAR uni1EF8
ENCODING 7928
SWIDTH 600 0
DWIDTH 12 0
BBX 10 18 1 0
BITMAP
3900
2F00
0000
0000
C0C0
4080
6180
2100
3300
1200
1E00
0C00
0C00
0C00
0C00
0C00
0C00
0C00
ENDCHAR
STARTCHAR uni1EF9
ENCODING 7929
SWIDTH 600 0
DWIDTH 12 0
BBX 10 19 1 -4
BITMAP
3900
2D00
2700
0000
0000
C0C0
4080
6180
2100
2100
3300
1200
1200
1E00
0C00
0C00
0800
1800
7000
ENDCHAR
STARTCHAR endash
ENCODING 8211
SWIDTH 600 0
DWIDTH 12 0
BBX 10 1 1 5
BITMAP
FFC0
ENDCHAR
STARTCHAR emdash
ENCODING 8212
SWIDTH 600 0
DWIDTH 12 0
BBX 12 1 0 5
BITMAP
FFF0
ENDCHAR
STARTCHAR quoteleft
ENCODING 8216
SWIDTH 600 0
DWIDTH 12 0
BBX 2 5 5 10
BITMAP
40
C0
80
C0
C0
ENDCHAR
STARTCHAR quoteright
ENCODING 8217
SWIDTH 600 0
DWIDTH 12 0
BBX 2 5 5 9
BITMAP
C0
C0
40
40
80
ENDCHAR
STARTCHAR quotesinglbase
ENCODING 8218
SWIDTH 600 0
DWIDTH 12 0
BBX 2 5 5 -3
BITMAP
C0
C0
40
C0
80
ENDCHAR
STARTCHAR quotedblleft
ENCODING 8220
SWIDTH 600 0
DWIDTH 12 0
BBX 6 5 3 10
BITMAP
44
48
88
CC
CC
ENDCHAR
STARTCHAR quotedblright
ENCODING 8221
SWIDTH 600 0
DWIDTH 12 0
BBX 6 5 3 9
BITMAP
CC
CC
44
4C
88
ENDCHAR
STARTCHAR quotedblbase
ENCODING 8222
SWIDTH 600 0
DWIDTH 12 0
BBX 6 5 3 -3
BITMAP
CC
CC
44
48
88
ENDCHAR
STARTCHAR dagger
ENCODING 8224
SWIDTH 600 0
DWIDTH 12 0
BBX 6 10 3 5
BITMAP
30
30
30
FC
30
30
30
30
30
30
ENDCHAR
STARTCHAR daggerdbl
ENCODING 8225
SWIDTH 600 0
DWIDTH 12 0
BBX 6 11 3 4
BITMAP
30
30
30
FC
30
30
30
FC
30
30
30
ENDCHAR
STARTCHAR bullet
ENCODING 8226
SWIDTH 600 0
DWIDTH 12 0
BBX 4 5 4 4
BITMAP
E0
F0
F0
F0
60
ENDCHAR
STARTCHAR ellipsis
ENCODING 8230
SWIDTH 600 0
DWIDTH 12 0
BBX 10 2 1 0
BITMAP
CCC0
CCC0
ENDCHAR
STARTCHAR perthousand
ENCODING 8240
SWIDTH 600 0
DWIDTH 12 0
BBX 10 14 1 0
BITMAP
7000
9000
8800
9800
70C0
0700
3800
C000
0000
7380
9E40
8C40
9240
7380
ENDCHAR
STARTCHAR guilsinglleft
ENCODING 8249
SWIDTH 600 0
DWIDTH 12 0
BBX 4 8 4 1
BITMAP
20
60
40
C0
C0
40
60
30
ENDCHAR
STARTCHAR guilsinglright
ENCODING 8250
SWIDTH 600 0
DWIDTH 12 0
BBX 4 8 4 1
BITMAP
40
60
20
30
30
20
60
C0
ENDCHAR
STARTCHAR fraction
ENCODING 8260
SWIDTH 600 0
DWIDTH 12 0
BBX 10 14 1 0
BITMAP
0040
0080
0180
0100
0000
0000
0000
0000
0000
0000
2000
6000
4000
8000
ENDCHAR
STARTCHAR uni2070
ENCODING 8304
SWIDTH 600 0
DWIDTH 12 0
BBX 6 8 3 7
BITMAP
78
CC
CC
CC
CC
CC
48
78
ENDCHAR
STARTCHAR uni2074
ENCODING 8308
SWIDTH 600 0
DWIDTH 12 0
BBX 6 8 3 7
BITMAP
38
28
68
48
88
FC
08
08
ENDCHAR
STARTCHAR uni2075
ENCODING 8309
SWIDTH 600 0
DWIDTH 12 0
BBX 6 8 3 7
BITMAP
78
40
40
F8
CC
0C
CC
78
ENDCHAR
STARTCHAR uni2076
ENCODING 8310
SWIDTH 600 0
DWIDTH 12 0
BBX 6 8 3 7
BITMAP
78
C8
C0
F8
CC
CC
4C
78
ENDCHAR
STARTCHAR uni2077
ENCODING 8311
SWIDTH 600 0
DWIDTH 12 0
BBX 6 8 3 7
BITMAP
FC
8C
08
18
10
30
20
20
ENDCHAR
STARTCHAR uni2078
ENCODING 8312
SWIDTH 600 0
DWIDTH 12 0
BBX 6 8 3 7
BITMAP
78
CC
CC
78
48
84
CC
78
ENDCHAR
STARTCHAR uni2079
ENCODING 8313
SWIDTH 600 0
DWIDTH 12 0
BBX 6 8 3 7
BITMAP
78
C8
CC
CC
7C
0C
48
78
ENDCHAR
STARTCHAR uni2080
ENCODING 8320
SWIDTH 600 0
DWIDTH 12 0
BBX 6 7 3 -1
BITMAP
78
CC
CC
CC
CC
CC
78
ENDCHAR
STARTCHAR uni2081
ENCODING 8321
SWIDTH 600 0
DWIDTH 12 0
BBX 6 8 3 -1
BITMAP
30
30
70
30
30
30
30
FC
ENDCHAR
STARTCHAR uni2082
ENCODING 8322
SWIDTH 600 0
DWIDTH 12 0
BBX 6 7 3 -1
BITMAP
78
4C
CC
18
30
40
FC
ENDCHAR
STARTCHAR uni2083
ENCODING 8323
SWIDTH 600 0
DWIDTH 12 0
BBX 6 8 3 -1
BITMAP
78
48
CC
08
30
0C
CC
78
ENDCHAR
STARTCHAR uni2084
ENCODING 8324
SWIDTH 600 0
DWIDTH 12 0
BBX 6 7 3 -1
BITMAP
38
28
48
48
88
FC
08
ENDCHAR
STARTCHAR uni2085
ENCODING 8325
SWIDTH 600 0
DWIDTH 12 0
BBX 6 7 3 -1
BITMAP
78
40
78
CC
0C
CC
78
ENDCHAR
STARTCHAR uni2086
ENCODING 8326
SWIDTH 600 0
DWIDTH 12 0
BBX 6 8 3 -1
BITMAP
78
48
CC
C0
F8
CC
CC
78
ENDCHAR
STARTCHAR uni2087
ENCODING 8327
SWIDTH 600 0
DWIDTH 12 0
BBX 6 8 3 -2
BITMAP
FC
8C
08
18
10
30
20
20
ENDCHAR
STARTCHAR uni2088
ENCODING 8328
SWIDTH 600 0
DWIDTH 12 0
BBX 6 8 3 -1
BITMAP
78
CC
CC
48
78
CC
84
78
ENDCHAR
STARTCHAR uni2089
ENCODING 8329
SWIDTH 600 0
DWIDTH 12 0
BBX 6 7 3 -1
BITMAP
78
CC
CC
7C
0C
4C
78
ENDCHAR
STARTCHAR Euro
ENCODING 8364
SWIDTH 600 0
DWIDTH 12 0
BBX 10 14 1 0
BITMAP
1F00
3380
2080
6080
60C0
FC00
6000
6000
FC00
60C0
6080
2080
3180
1F00
ENDCHAR
STARTCHAR uni20BF
ENCODING 8383
SWIDTH 600 0
DWIDTH 12 0
BBX 9 18 2 -2
BITMAP
2C00
2C00
FE00
8700
8100
8100
8100
8300
FC00
8300
8180
8180
8180
8180
8300
FE00
2C00
2C00
ENDCHAR
STARTCHAR uni2116
ENCODING 8470
SWIDTH 600 0
DWIDTH 12 0
BBX 9 14 2 0
BITMAP
DB80
DA80
DA80
DA80
DA80
DA80
DB80
B800
BB80
B800
B800
B800
B800
B800
ENDCHAR
STARTCHAR trademark
ENCODING 8482
SWIDTH 600 0
DWIDTH 12 0
BBX 10 7 1 7
BITMAP
F6C0
46C0
4740
4540
4540
4440
4440
ENDCHAR
STARTCHAR uni2150
ENCODING 8528
SWIDTH 600 0
DWIDTH 12 0
BBX 12 14 0 0
BITMAP
2020
2040
60C0
2080
2000
2000
F9F0
0110
0020
0060
1040
3040
2080
4080
ENDCHAR
STARTCHAR uni2151
ENCODING 8529
SWIDTH 600 0
DWIDTH 12 0
BBX 12 14 0 0
BITMAP
2020
2040
60C0
2080
2000
2000
F9E0
0120
0330
0130
11F0
3030
2120
41E0
ENDCHAR
STARTCHAR uni2152
ENCODING 8530
SWIDTH 600 0
DWIDTH 12 0
BBX 12 14 0 0
BITMAP
2020
2040
60C0
2080
2000
2000
F960
0150
0350
0150
1150
3150
2150
4160
ENDCHAR
STARTCHAR uni2153
ENCODING 8531
SWIDTH 600 0
DWIDTH 12 0
BBX 12 14 0 0
BITMAP
2020
2040
60C0
2080
2000
2000
F9E0
0120
0320
0020
10C0
3030
2330
41E0
ENDCHAR
STARTCHAR uni2154
ENCODING 8532
SWIDTH 600 0
DWIDTH 12 0
BBX 12 14 0 0
BITMAP
7820
4840
C8C0
1880
3000
4000
F9E0
0120
0320
0020
10C0
3030
2330
41E0
ENDCHAR
STARTCHAR uni2155
ENCODING 8533
SWIDTH 600 0
DWIDTH 12 0
BBX 12 14 0 0
BITMAP
2020
2040
60C0
2080
2000
2000
F9E0
0100
0100
01E0
1130
3030
2130
41E0
ENDCHAR
STARTCHAR uni2156
ENCODING 8534
SWIDTH 600 0
DWIDTH 12 0
BBX 12 14 0 0
BITMAP
7820
4840
C8C0
1880
3000
4000
F9E0
0100
0100
01E0
1130
3030
2130
41E0
ENDCHAR
STARTCHAR uni2157
ENCODING 8535
SWIDTH 600 0
DWIDTH 12 0
BBX 12 14 0 0
BITMAP
7820
4840
08C0
3080
0800
C400
4C00
79E0
0100
01E0
1130
3030
2130
41E0
ENDCHAR
STARTCHAR uni2158
ENCODING 8536
SWIDTH 600 0
DWIDTH 12 0
BBX 12 14 0 0
BITMAP
1820
2840
68C0
4880
C800
FC00
09E0
0100
0100
01E0
1130
3030
2130
41E0
ENDCHAR
STARTCHAR uni2159
ENCODING 8537
SWIDTH 600 0
DWIDTH 12 0
BBX 12 14 0 0
BITMAP
2020
2040
60C0
2080
2000
2000
F9E0
0120
0100
03E0
1330
3130
2120
41E0
ENDCHAR
STARTCHAR uni215A
ENCODING 8538
SWIDTH 600 0
DWIDTH 12 0
BBX 11 14 1 0
BITMAP
F040
8080
8180
F100
9000
1800
93C0
F240
0200
07C0
2660
6260
4240
83C0
ENDCHAR
STARTCHAR oneeighth
ENCODING 8539
SWIDTH 600 0
DWIDTH 12 0
BBX 12 14 0 0
BITMAP
2020
2040
60C0
2080
2000
2000
F9E0
0320
0320
0140
11E0
3230
2230
41E0
ENDCHAR
STARTCHAR threeeighths
ENCODING 8540
SWIDTH 600 0
DWIDTH 12 0
BBX 12 14 0 0
BITMAP
7820
4840
08C0
3880
0800
C400
4DE0
7B20
0320
0120
11E0
3230
2230
41E0
ENDCHAR
STARTCHAR fiveeighths
ENCODING 8541
SWIDTH 600 0
DWIDTH 12 0
BBX 11 14 1 0
BITMAP
F040
8080
8180
F100
1000
1800
93C0
F640
0640
0240
2180
6660
4460
83C0
ENDCHAR
STARTCHAR seveneighths
ENCODING 8542
SWIDTH 600 0
DWIDTH 12 0
BBX 12 14 0 0
BITMAP
FC20
CC40
08C0
1080
1000
2000
21E0
0320
0320
0120
11E0
3230
2230
41E0
ENDCHAR
STARTCHAR uni215F
ENCODING 8543
SWIDTH 600 0
DWIDTH 12 0
BBX 11 14 0 0
BITMAP
2020
2040
60C0
2080
2000
2000
F800
0000
0000
0000
1000
3000
2000
4000
ENDCHAR
STARTCHAR uni2189
ENCODING 8585
SWIDTH 600 0
DWIDTH 12 0
BBX 12 14 0 0
BITMAP
7820
4840
CCC0
CC80
CC00
CC00
49E0
7920
0320
0020
10C0
3030
2330
41E0
ENDCHAR
STARTCHAR arrowleft
ENCODING 8592
SWIDTH 600 0
DWIDTH 12 0
BBX 11 9 0 2
BITMAP
1800
1000
2000
6000
FFE0
6000
3000
1800
0800
ENDCHAR
STARTCHAR arrowup
ENCODING 8593
SWIDTH 600 0
DWIDTH 12 0
BBX 8 11 2 0
BITMAP
18
3C
7E
DB
18
18
18
18
18
18
18
ENDCHAR
STARTCHAR arrowright
ENCODING 8594
SWIDTH 600 0
DWIDTH 12 0
BBX 11 9 1 2
BITMAP
0300
0100
0080
00C0
FFE0
00C0
0180
0300
0200
ENDCHAR
STARTCHAR arrowdown
ENCODING 8595
SWIDTH 600 0
DWIDTH 12 0
BBX 8 11 2 0
BITMAP
18
18
18
18
18
18
18
DB
7E
3C
18
ENDCHAR
STARTCHAR arrowboth
ENCODING 8596
SWIDTH 600 0
DWIDTH 12 0
BBX 12 8 0 3
BITMAP
1080
30C0
2040
4020
FFF0
6060
2040
1080
ENDCHAR
STARTCHAR arrowupdn
ENCODING 8597
SWIDTH 600 0
DWIDTH 12 0
BBX 8 12 2 1
BITMAP
18
3C
DB
99
18
18
18
18
99
DB
3C
18
ENDCHAR
STARTCHAR uni2196
ENCODING 8598
SWIDTH 600 0
DWIDTH 12 0
BBX 10 9 1 2
BITMAP
FF00
E000
F000
D800
CC00
C600
C300
0180
00C0
ENDCHAR
STARTCHAR uni2197
ENCODING 8599
SWIDTH 600 0
DWIDTH 12 0
BBX 10 9 1 2
BITMAP
3FC0
01C0
03C0
06C0
0CC0
18C0
30C0
6000
C000
ENDCHAR
STARTCHAR uni2198
ENCODING 8600
SWIDTH 600 0
DWIDTH 12 0
BBX 10 9 1 0
BITMAP
C000
6000
30C0
18C0
0CC0
06C0
03C0
01C0
3FC0
ENDCHAR
STARTCHAR uni2199
ENCODING 8601
SWIDTH 600 0
DWIDTH 12 0
BBX 10 9 1 0
BITMAP
00C0
0180
C300
C600
CC00
D800
F000
E000
FF00
ENDCHAR
STARTCHAR uni21BA
ENCODING 8634
SWIDTH 600 0
DWIDTH 12 0
BBX 12 13 0 0
BITMAP
0400
0C00
1F00
09C0
0460
0620
4020
C030
4020
4020
6060
39C0
0F00
ENDCHAR
STARTCHAR uni21BB
ENCODING 8635
SWIDTH 600 0
DWIDTH 12 0
BBX 12 13 0 0
BITMAP
0200
0300
0F80
3900
6200
4400
4020
C030
4020
4020
6060
39C0
0F00
ENDCHAR
STARTCHAR partialdiff
ENCODING 8706
SWIDTH 600 0
DWIDTH 12 0
BBX 8 14 2 0
BITMAP
78
0E
02
03
01
01
7D
C3
81
81
81
83
E7
3C
ENDCHAR
STARTCHAR emptyset
ENCODING 8709
SWIDTH 600 0
DWIDTH 12 0
BBX 8 8 2 3
BITMAP
3D
66
C7
89
91
A1
42
BC
ENDCHAR
STARTCHAR product
ENCODING 8719
SWIDTH 600 0
DWIDTH 12 0
BBX 10 14 1 0
BITMAP
FFC0
2100
2100
2100
2100
2100
2100
2100
2100
2100
2100
2100
2100
2100
ENDCHAR
STARTCHAR summation
ENCODING 8721
SWIDTH 600 0
DWIDTH 12 0
BBX 8 14 2 0
BITMAP
FF
C0
40
60
20
10
18
18
10
20
60
40
C0
FF
ENDCHAR
STARTCHAR minus
ENCODING 8722
SWIDTH 600 0
DWIDTH 12 0
BBX 8 1 2 6
BITMAP
FF
ENDCHAR
STARTCHAR radical
ENCODING 8730
SWIDTH 600 0
DWIDTH 12 0
BBX 10 14 1 0
BITMAP
01C0
0300
0300
0200
C200
C600
4600
4400
6400
6400
2C00
2800
3800
1800
ENDCHAR
STARTCHAR infinity
ENCODING 8734
SWIDTH 600 0
DWIDTH 12 0
BBX 10 5 1 4
BITMAP
7380
8C40
8C40
8C40
7380
ENDCHAR
STARTCHAR integral
ENCODING 8747
SWIDTH 600 0
DWIDTH 12 0
BBX 8 18 2 -3
BITMAP
0F
18
18
18
18
18
18
18
18
18
18
18
18
18
18
18
18
F0
ENDCHAR
STARTCHAR approxequal
ENCODING 8776
SWIDTH 600 0
DWIDTH 12 0
BBX 8 7 2 3
BITMAP
71
99
8F
00
F1
99
8E
ENDCHAR
STARTCHAR notequal
ENCODING 8800
SWIDTH 600 0
DWIDTH 12 0
BBX 8 11 2 1
BITMAP
04
08
08
FF
08
18
10
FF
10
10
20
ENDCHAR
STARTCHAR lessequal
ENCODING 8804
SWIDTH 600 0
DWIDTH 12 0
BBX 8 8 2 3
BITMAP
07
7C
C0
F0
1F
01
00
FF
ENDCHAR
STARTCHAR greaterequal
ENCODING 8805
SWIDTH 600 0
DWIDTH 12 0
BBX 8 8 2 3
BITMAP
E0
3E
03
0F
F8
80
00
FF
ENDCHAR
STARTCHAR uni231A
ENCODING 8986
SWIDTH 600 0
DWIDTH 12 0
BBX 10 14 1 0
BITMAP
1E00
1E00
7F80
4080
C0C0
8140
9E40
8C40
8040
C0C0
4080
7F80
1E00
1E00
ENDCHAR
STARTCHAR uni2460
ENCODING 9312
SWIDTH 600 0
DWIDTH 12 0
BBX 10 14 1 0
BITMAP
3F00
6180
8040
8440
8440
9C40
8440
8440
8440
8440
9E40
8040
6180
3F00
ENDCHAR
STARTCHAR uni2461
ENCODING 9313
SWIDTH 600 0
DWIDTH 12 0
BBX 10 14 1 0
BITMAP
3F00
6180
8040
9E40
9240
9340
8240
8440
9840
9040
BE40
8040
6180
3F00
ENDCHAR
STARTCHAR uni2462
ENCODING 9314
SWIDTH 600 0
DWIDTH 12 0
BBX 10 14 1 0
BITMAP
3F00
6180
8040
9E40
9240
9240
8240
8C40
8340
B340
9E40
8040
6180
3F00
ENDCHAR
STARTCHAR uni2463
ENCODING 9315
SWIDTH 600 0
DWIDTH 12 0
BBX 10 14 1 0
BITMAP
3F00
6180
8040
8C40
8C40
9440
9440
A440
BF40
8440
8440
C0C0
6180
3F00
ENDCHAR
STARTCHAR uni2464
ENCODING 9316
SWIDTH 600 0
DWIDTH 12 0
BBX 10 14 1 0
BITMAP
3F00
6180
8040
9E40
9040
9040
9E40
9240
8340
9240
9E40
8040
6180
3F00
ENDCHAR
STARTCHAR uni2465
ENCODING 9317
SWIDTH 600 0
DWIDTH 12 0
BBX 10 14 1 0
BITMAP
3F00
6180
8040
9E40
9240
B040
BE40
B240
B340
9240
9E40
8040
6180
3F00
ENDCHAR
STARTCHAR uni2466
ENCODING 9318
SWIDTH 600 0
DWIDTH 12 0
BBX 10 14 1 0
BITMAP
3F00
6180
8040
BF40
B340
8240
8440
8440
8C40
8840
8840
80C0
6180
3F00
ENDCHAR
STARTCHAR uni2467
ENCODING 9319
SWIDTH 600 0
DWIDTH 12 0
BBX 10 14 1 0
BITMAP
3F00
6180
8040
9E40
9240
9240
9240
9E40
B340
B340
9E40
8040
6180
3F00
ENDCHAR
STARTCHAR uni2468
ENCODING 9320
SWIDTH 600 0
DWIDTH 12 0
BBX 10 14 1 0
BITMAP
3F00
6180
8040
9E40
9240
B340
9340
9F40
8340
9240
9E40
8040
6180
3F00
ENDCHAR
STARTCHAR uni2469
ENCODING 9321
SWIDTH 600 0
DWIDTH 12 0
BBX 10 14 1 0
BITMAP
3F00
6180
8CC0
9C40
8C40
8C40
9E40
8040
9E40
B340
B340
9E40
4080
3F00
ENDCHAR
STARTCHAR uni24EA
ENCODING 9450
SWIDTH 600 0
DWIDTH 12 0
BBX 10 14 1 0
BITMAP
3F00
6180
8040
9E40
9240
B340
B340
B340
B340
9240
9E40
8040
6180
3F00
ENDCHAR
STARTCHAR uni24FF
ENCODING 9471
SWIDTH 600 0
DWIDTH 12 0
BBX 10 14 1 0
BITMAP
3F00
7F80
FFC0
F3C0
EDC0
CCC0
CCC0
CCC0
CCC0
EDC0
E1C0
FFC0
7F80
3F00
ENDCHAR
STARTCHAR uni25B6
ENCODING 9654
SWIDTH 600 0
DWIDTH 12 0
BBX 10 12 1 1
BITMAP
8000
E000
F000
FC00
FF00
FFC0
FFC0
FF80
FE00
F800
E000
C000
ENDCHAR
STARTCHAR uni25B7
ENCODING 9655
SWIDTH 600 0
DWIDTH 12 0
BBX 10 12 1 1
BITMAP
8000
E000
B000
8C00
8700
81C0
80C0
8380
8E00
9800
E000
C000
ENDCHAR
STARTCHAR lozenge
ENCODING 9674
SWIDTH 600 0
DWIDTH 12 0
BBX 8 14 2 0
BITMAP
18
3C
24
66
42
C3
81
81
C3
42
66
24
3C
18
ENDCHAR
STARTCHAR uni25EF
ENCODING 9711
SWIDTH 600 0
DWIDTH 12 0
BBX 10 10 1 2
BITMAP
1E00
7380
C0C0
8040
8040
8040
8040
C0C0
6180
3F00
ENDCHAR
STARTCHAR uni2776
ENCODING 10102
SWIDTH 600 0
DWIDTH 12 0
BBX 10 14 1 0
BITMAP
3F00
7F80
FFC0
FBC0
FBC0
E3C0
FBC0
FBC0
FBC0
FBC0
E1C0
FFC0
7F80
3F00
ENDCHAR
STARTCHAR uni2777
ENCODING 10103
SWIDTH 600 0
DWIDTH 12 0
BBX 10 14 1 0
BITMAP
3F00
7F80
FFC0
F3C0
EDC0
ECC0
FDC0
F9C0
E7C0
EFC0
E1C0
FFC0
7F80
3F00
ENDCHAR
STARTCHAR uni2778
ENCODING 10104
SWIDTH 600 0
DWIDTH 12 0
BBX 10 14 1 0
BITMAP
3F00
7F80
FFC0
F3C0
E9C0
EDC0
FDC0
F3C0
FCC0
CCC0
E1C0
FFC0
7F80
3F00
ENDCHAR
STARTCHAR uni2779
ENCODING 10105
SWIDTH 600 0
DWIDTH 12 0
BBX 10 14 1 0
BITMAP
3F00
7F80
FFC0
F3C0
F3C0
EBC0
EBC0
DBC0
C3C0
FBC0
FBC0
FFC0
7F80
3F00
ENDCHAR
STARTCHAR uni277A
ENCODING 10106
SWIDTH 600 0
DWIDTH 12 0
BBX 10 14 1 0
BITMAP
3F00
7F80
FFC0
E1C0
EFC0
EFC0
E1C0
EDC0
FCC0
EDC0
E1C0
FFC0
7F80
3F00
ENDCHAR
STARTCHAR uni277B
ENCODING 10107
SWIDTH 600 0
DWIDTH 12 0
BBX 10 14 1 0
BITMAP
3F00
7F80
FFC0
F3C0
E1C0
EDC0
CFC0
CDC0
CCC0
EDC0
E1C0
FFC0
7F80
3F00
ENDCHAR
STARTCHAR uni277C
ENCODING 10108
SWIDTH 600 0
DWIDTH 12 0
BBX 10 14 1 0
BITMAP
3F00
7F80
FFC0
C0C0
C0C0
FDC0
F9C0
FBC0
FBC0
F7C0
F7C0
FFC0
7F80
3F00
ENDCHAR
STARTCHAR uni277D
ENCODING 10109
SWIDTH 600 0
DWIDTH 12 0
BBX 10 14 1 0
BITMAP
3F00
7F80
FFC0
E1C0
EDC0
EDC0
E1C0
EDC0
DEC0
CCC0
E1C0
FFC0
7F80
3F00
ENDCHAR
STARTCHAR uni277E
ENCODING 10110
SWIDTH 600 0
DWIDTH 12 0
BBX 10 14 1 0
BITMAP
3F00
7F80
FFC0
F3C0
EDC0
CCC0
ECC0
E0C0
FCC0
EDC0
E1C0
FFC0
7F80
3F00
ENDCHAR
STARTCHAR uni277F
ENCODING 10111
SWIDTH 600 0
DWIDTH 12 0
BBX 10 14 1 0
BITMAP
3F00
7F80
FBC0
EBC0
FBC0
E1C0
FFC0
E1C0
EDC0
CCC0
CDC0
E1C0
7F80
3F00
ENDCHAR
STARTCHAR uni2B1B
ENCODING 11035
SWIDTH 600 0
DWIDTH 12 0
BBX 10 10 1 2
BITMAP
FFC0
FFC0
FFC0
FFC0
FFC0
FFC0
FFC0
FFC0
FFC0
FFC0
ENDCHAR
STARTCHAR uni2B1C
ENCODING 11036
SWIDTH 600 0
DWIDTH 12 0
BBX 10 10 1 2
BITMAP
FFC0
8040
8040
8040
8040
8040
8040
8040
8040
FFC0
ENDCHAR
STARTCHAR uni2B24
ENCODING 11044
SWIDTH 600 0
DWIDTH 12 0
BBX 10 10 1 2
BITMAP
1E00
7F80
FFC0
FFC0
FFC0
FFC0
FFC0
FFC0
7F80
3F00
ENDCHAR
STARTCHAR uniE132
ENCODING 57650
SWIDTH 600 0
DWIDTH 12 0
BBX 9 18 2 -4
BITMAP
6180
6300
C200
0000
C300
C300
C300
C300
C300
C300
C300
C300
C300
C300
0300
0300
0200
1E00
ENDCHAR
STARTCHAR uniE133
ENCODING 57651
SWIDTH 600 0
DWIDTH 12 0
BBX 10 18 1 0
BITMAP
31C0
6100
C200
0000
47C0
40C0
40C0
40C0
40C0
40C0
40C0
40C0
58C0
58C0
58C0
4880
4D80
4700
ENDCHAR
STARTCHAR fi
ENCODING 64257
SWIDTH 600 0
DWIDTH 12 0
BBX 10 15 0 0
BITMAP
1EC0
10C0
3000
3000
3000
FFC0
3040
3040
3040
3040
3040
3040
3040
3040
3040
ENDCHAR
STARTCHAR fl
ENCODING 64258
SWIDTH 600 0
DWIDTH 12 0
BBX 10 15 0 0
BITMAP
1E40
1040
3040
3040
3040
FC40
3040
3040
3040
3040
3040
3040
3040
3040
3040
ENDCHAR
STARTCHAR .notdef
ENCODING -1
SWIDTH 600 0
DWIDTH 12 0
BBX 10 14 1 0
BITMAP
FF00
FB80
D9C0
CBC0
F3C0
CFC0
EDC0
DFC0
E3C0
FFC0
C1C0
DBC0
F3C0
FFC0
ENDCHAR
STARTCHAR i.loclTRK
ENCODING -1
SWIDTH 600 0
DWIDTH 12 0
BBX 9 14 2 0
BITMAP
1C00
1C00
0000
0000
F800
0800
0800
0800
0800
0800
0800
0800
0800
0780
ENDCHAR
STARTCHAR a.ss01
ENCODING -1
SWIDTH 600 0
DWIDTH 12 0
BBX 8 10 2 0
BITMAP
79
E5
C3
83
81
81
83
C3
E5
79
ENDCHAR
STARTCHAR aacute.ss01
ENCODING -1
SWIDTH 600 0
DWIDTH 12 0
BBX 8 14 2 0
BITMAP
0C
0C
18
00
79
E5
C3
83
81
81
83
C3
E5
79
ENDCHAR
STARTCHAR abreve.ss01
ENCODING -1
SWIDTH 600 0
DWIDTH 12 0
BBX 8 14 2 0
BITMAP
62
26
3C
00
79
E5
C3
83
81
81
83
C3
E5
79
ENDCHAR
STARTCHAR acircumflex.ss01
ENCODING -1
SWIDTH 600 0
DWIDTH 12 0
BBX 8 14 2 0
BITMAP
18
3C
66
00
79
E5
C3
83
81
81
83
C3
E5
79
ENDCHAR
STARTCHAR adieresis.ss01
ENCODING -1
SWIDTH 600 0
DWIDTH 12 0
BBX 8 14 2 0
BITMAP
66
66
00
00
79
E5
C3
83
81
81
83
C3
E5
79
ENDCHAR
STARTCHAR uni1EA1.ss01
ENCODING -1
SWIDTH 600 0
DWIDTH 12 0
BBX 8 14 2 -4
BITMAP
79
E5
C3
83
81
81
83
C3
E5
79
00
00
18
18
ENDCHAR
STARTCHAR agrave.ss01
ENCODING -1
SWIDTH 600 0
DWIDTH 12 0
BBX 8 14 2 0
BITMAP
30
18
08
00
79
E5
C3
83
81
81
83
C3
E5
79
ENDCHAR
STARTCHAR amacron.ss01
ENCODING -1
SWIDTH 600 0
DWIDTH 12 0
BBX 8 14 2 0
BITMAP
7E
00
00
00
79
E5
C3
83
81
81
83
C3
E5
79
ENDCHAR
STARTCHAR aogonek.ss01
ENCODING -1
SWIDTH 600 0
DWIDTH 12 0
BBX 8 14 2 -4
BITMAP
79
E5
C3
83
81
81
83
C3
E5
79
02
04
04
07
ENDCHAR
STARTCHAR aring.ss01
ENCODING -1
SWIDTH 600 0
DWIDTH 12 0
BBX 8 16 2 0
BITMAP
3C
24
26
24
1C
00
79
E5
C3
83
81
81
83
C3
E5
79
ENDCHAR
STARTCHAR aringacute.ss01
ENCODING -1
SWIDTH 600 0
DWIDTH 12 0
BBX 8 20 2 0
BITMAP
0C
0C
18
00
3C
24
26
24
1C
00
79
E5
C3
83
81
81
83
C3
E5
79
ENDCHAR
STARTCHAR atilde.ss01
ENCODING -1
SWIDTH 600 0
DWIDTH 12 0
BBX 8 15 2 0
BITMAP
73
5B
4E
00
00
79
E5
C3
83
81
81
83
C3
E5
79
ENDCHAR
STARTCHAR g.ss02
ENCODING -1
SWIDTH 600 0
DWIDTH 12 0
BBX 8 14 2 -4
BITMAP
79
E5
C3
83
81
81
83
C3
E5
79
01
C3
66
3C
ENDCHAR
STARTCHAR gbreve.ss02
ENCODING -1
SWIDTH 600 0
DWIDTH 12 0
BBX 8 18 2 -4
BITMAP
42
66
3C
00
79
E5
C3
83
81
81
83
C3
E5
79
01
C3
66
3C
ENDCHAR
STARTCHAR gcaron.ss02
ENCODING -1
SWIDTH 600 0
DWIDTH 12 0
BBX 8 18 2 -4
BITMAP
66
3C
18
00
79
E5
C3
83
81
81
83
C3
E5
79
01
C3
66
3C
ENDCHAR
STARTCHAR gcircumflex.ss02
ENCODING -1
SWIDTH 600 0
DWIDTH 12 0
BBX 8 18 2 -4
BITMAP
18
3C
66
00
79
E5
C3
83
81
81
83
C3
E5
79
01
C3
66
3C
ENDCHAR
STARTCHAR uni0123.ss02
ENCODING -1
SWIDTH 600 0
DWIDTH 12 0
BBX 8 19 2 -4
BITMAP
08
10
18
18
00
79
E5
C3
83
81
81
83
C3
E5
79
01
C3
66
3C
ENDCHAR
STARTCHAR gdotaccent.ss02
ENCODING -1
SWIDTH 600 0
DWIDTH 12 0
BBX 8 18 2 -4
BITMAP
18
18
00
00
79
E5
C3
83
81
81
83
C3
E5
79
01
C3
66
3C
ENDCHAR
STARTCHAR g.ss03
ENCODING -1
SWIDTH 600 0
DWIDTH 12 0
BBX 10 14 1 -4
BITMAP
3FC0
6300
4100
4180
4100
6300
3E00
4000
4000
7FC0
4040
C040
C0C0
7F80
ENDCHAR
STARTCHAR gbreve.ss03
ENCODING -1
SWIDTH 600 0
DWIDTH 12 0
BBX 10 19 1 -4
BITMAP
2300
2200
1E00
0000
0000
3FC0
6300
4100
4180
4100
6300
3E00
4000
4000
7FC0
4040
C040
C0C0
7F80
ENDCHAR
STARTCHAR gcaron.ss03
ENCODING -1
SWIDTH 600 0
DWIDTH 12 0
BBX 10 18 1 -4
BITMAP
3200
1E00
0C00
0000
3FC0
6300
4100
4180
4100
6300
3E00
4000
4000
7FC0
4040
C040
C0C0
7F80
ENDCHAR
STARTCHAR gcircumflex.ss03
ENCODING -1
SWIDTH 600 0
DWIDTH 12 0
BBX 10 18 1 -4
BITMAP
1C00
1E00
3200
0000
3FC0
6300
4100
4180
4100
6300
3E00
4000
4000
7FC0
4040
C040
C0C0
7F80
ENDCHAR
STARTCHAR uni0123.ss03
ENCODING -1
SWIDTH 600 0
DWIDTH 12 0
BBX 10 19 1 -4
BITMAP
0800
0800
0C00
0C00
0000
3FC0
6300
4100
4180
4100
6300
3E00
4000
4000
7FC0
4040
C040
C0C0
7F80
ENDCHAR
STARTCHAR gdotaccent.ss03
ENCODING -1
SWIDTH 600 0
DWIDTH 12 0
BBX 10 18 1 -4
BITMAP
1C00
1C00
0000
0000
3FC0
6300
4100
4180
4100
6300
3E00
4000
4000
7FC0
4040
C040
C0C0
7F80
ENDCHAR
STARTCHAR i.ss04
ENCODING -1
SWIDTH 600 0
DWIDTH 12 0
BBX 9 15 2 0
BITMAP
1C00
1C00
0000
0000
0000
F800
0800
0800
0800
0800
0800
0800
0800
0800
FF80
ENDCHAR
STARTCHAR dotlessi.ss04
ENCODING -1
SWIDTH 600 0
DWIDTH 12 0
BBX 9 10 2 0
BITMAP
F800
0800
0800
0800
0800
0800
0800
0800
0800
FF80
ENDCHAR
STARTCHAR iacute.ss04
ENCODING -1
SWIDTH 600 0
DWIDTH 12 0
BBX 9 14 2 0
BITMAP
0600
0C00
1800
0000
F800
0800
0800
0800
0800
0800
0800
0800
0800
FF80
ENDCHAR
STARTCHAR ibreve.ss04
ENCODING -1
SWIDTH 600 0
DWIDTH 12 0
BBX 9 15 2 0
BITMAP
2200
2200
3E00
0000
0000
F800
0800
0800
0800
0800
0800
0800
0800
0800
FF80
ENDCHAR
STARTCHAR icircumflex.ss04
ENCODING -1
SWIDTH 600 0
DWIDTH 12 0
BBX 9 14 2 0
BITMAP
1C00
1600
2200
0000
F800
0800
0800
0800
0800
0800
0800
0800
0800
FF80
ENDCHAR
STARTCHAR idieresis.ss04
ENCODING -1
SWIDTH 600 0
DWIDTH 12 0
BBX 9 14 2 0
BITMAP
7700
7700
0000
0000
F800
0800
0800
0800
0800
0800
0800
0800
0800
FF80
ENDCHAR
STARTCHAR i.loclTRK.ss04
ENCODING -1
SWIDTH 600 0
DWIDTH 12 0
BBX 9 14 2 0
BITMAP
1C00
1C00
0000
0000
F800
0800
0800
0800
0800
0800
0800
0800
0800
FF80
ENDCHAR
STARTCHAR uni1ECB.ss04
ENCODING -1
SWIDTH 600 0
DWIDTH 12 0
BBX 9 19 2 -4
BITMAP
1C00
1C00
0000
0000
0000
F800
0800
0800
0800
0800
0800
0800
0800
0800
FF80
0000
0000
1C00
1C00
ENDCHAR
STARTCHAR igrave.ss04
ENCODING -1
SWIDTH 600 0
DWIDTH 12 0
BBX 9 14 2 0
BITMAP
3000
1800
0C00
0000
F800
0800
0800
0800
0800
0800
0800
0800
0800
FF80
ENDCHAR
STARTCHAR imacron.ss04
ENCODING -1
SWIDTH 600 0
DWIDTH 12 0
BBX 9 14 2 0
BITMAP
7F00
0000
0000
0000
F800
0800
0800
0800
0800
0800
0800
0800
0800
FF80
ENDCHAR
STARTCHAR iogonek.ss04
ENCODING -1
SWIDTH 600 0
DWIDTH 12 0
BBX 9 18 2 -4
BITMAP
1C00
1C00
0000
0000
F800
0800
0800
0800
0800
0800
0800
0800
0800
FF80
0100
0200
0200
0380
ENDCHAR
STARTCHAR itilde.ss04
ENCODING -1
SWIDTH 600 0
DWIDTH 12 0
BBX 9 15 2 0
BITMAP
3100
7900
4F00
0000
0000
F800
0800
0800
0800
0800
0800
0800
0800
0800
FF80
ENDCHAR
STARTCHAR l.ss04
ENCODING -1
SWIDTH 600 0
DWIDTH 12 0
BBX 9 15 2 0
BITMAP
F800
1800
1800
1800
1800
1800
1800
1800
1800
1800
1800
1800
1800
1800
FF80
ENDCHAR
STARTCHAR lacute.ss04
ENCODING -1
SWIDTH 600 0
DWIDTH 12 0
BBX 9 19 2 0
BITMAP
0600
0C00
1800
0000
F800
1800
1800
1800
1800
1800
1800
1800
1800
1800
1800
1800
1800
1800
FF80
ENDCHAR
STARTCHAR lcaron.ss04
ENCODING -1
SWIDTH 600 0
DWIDTH 12 0
BBX 9 15 2 0
BITMAP
F980
1980
1880
1900
1800
1800
1800
1800
1800
1800
1800
1800
1800
1800
FF80
ENDCHAR
STARTCHAR uni013C.ss04
ENCODING -1
SWIDTH 600 0
DWIDTH 12 0
BBX 9 20 2 -5
BITMAP
F800
1800
1800
1800
1800
1800
1800
1800
1800
1800
1800
1800
1800
1800
FF80
0000
1800
1800
0800
1800
ENDCHAR
STARTCHAR ldot.ss04
ENCODING -1
SWIDTH 600 0
DWIDTH 12 0
BBX 10 15 2 0
BITMAP
F800
1800
1800
1800
1800
1800
1800
18C0
18C0
1800
1800
1800
1800
1800
FF80
ENDCHAR
STARTCHAR lslash.ss04
ENCODING -1
SWIDTH 600 0
DWIDTH 12 0
BBX 9 15 2 0
BITMAP
F800
1800
1800
1800
1800
1800
1E00
3E00
7800
1800
1800
1800
1800
1800
FF80
ENDCHAR
STARTCHAR zero.osf
ENCODING -1
SWIDTH 600 0
DWIDTH 12 0
BBX 10 10 1 0
BITMAP
3F00
6180
4080
4080
C0C0
C0C0
4080
4080
7380
1E00
ENDCHAR
STARTCHAR one.osf
ENCODING -1
SWIDTH 600 0
DWIDTH 12 0
BBX 8 10 2 0
BITMAP
18
18
18
F8
18
18
18
18
18
FF
ENDCHAR
STARTCHAR two.osf
ENCODING -1
SWIDTH 600 0
DWIDTH 12 0
BBX 8 10 2 0
BITMAP
7E
C3
81
81
03
1C
30
40
80
FF
ENDCHAR
STARTCHAR three.osf
ENCODING -1
SWIDTH 600 0
DWIDTH 12 0
BBX 10 14 1 -4
BITMAP
3F00
6180
4180
4080
0080
0180
0E00
0180
0080
C0C0
C0C0
4080
7380
1F00
ENDCHAR
STARTCHAR four.osf
ENCODING -1
SWIDTH 600 0
DWIDTH 12 0
BBX 10 13 1 -3
BITMAP
0700
0F00
1B00
1300
3300
2300
6300
C300
C300
FFC0
0300
0300
0300
ENDCHAR
STARTCHAR five.osf
ENCODING -1
SWIDTH 600 0
DWIDTH 12 0
BBX 9 14 2 -4
BITMAP
FF00
C000
C000
C000
C000
BE00
C300
8100
0180
0180
8100
8100
E700
3C00
ENDCHAR
STARTCHAR six.osf
ENCODING -1
SWIDTH 600 0
DWIDTH 12 0
BBX 8 14 2 0
BITMAP
3C
66
C3
81
80
80
BE
C3
81
81
81
C1
67
3C
ENDCHAR
STARTCHAR seven.osf
ENCODING -1
SWIDTH 600 0
DWIDTH 12 0
BBX 8 14 2 -4
BITMAP
FF
81
83
02
06
04
0C
08
18
10
10
30
30
20
ENDCHAR
STARTCHAR eight.osf
ENCODING -1
SWIDTH 600 0
DWIDTH 12 0
BBX 10 14 1 0
BITMAP
1E00
7300
6180
4080
4080
6180
1E00
3300
4080
C0C0
C0C0
4080
6180
3F00
ENDCHAR
STARTCHAR nine.osf
ENCODING -1
SWIDTH 600 0
DWIDTH 12 0
BBX 8 14 2 -4
BITMAP
7E
C3
81
81
81
83
E5
7D
01
01
81
C3
66
3C
ENDCHAR
STARTCHAR zero.ss05
ENCODING -1
SWIDTH 600 0
DWIDTH 12 0
BBX 8 14 2 0
BITMAP
3C
E7
81
81
81
81
81
81
81
81
81
81
E7
3C
ENDCHAR
STARTCHAR zero.zero
ENCODING -1
SWIDTH 600 0
DWIDTH 12 0
BBX 8 14 2 0
BITMAP
3C
E7
81
83
87
85
89
91
A1
C1
C1
81
E7
3C
ENDCHAR
STARTCHAR zero.dnom
ENCODING -1
SWIDTH 600 0
DWIDTH 12 0
BBX 6 8 3 0
BITMAP
78
48
CC
CC
CC
CC
48
78
ENDCHAR
STARTCHAR one.dnom
ENCODING -1
SWIDTH 600 0
DWIDTH 12 0
BBX 6 8 3 0
BITMAP
30
30
70
30
30
30
30
FC
ENDCHAR
STARTCHAR two.dnom
ENCODING -1
SWIDTH 600 0
DWIDTH 12 0
BBX 6 8 3 0
BITMAP
78
48
CC
08
38
60
C0
FC
ENDCHAR
STARTCHAR three.dnom
ENCODING -1
SWIDTH 600 0
DWIDTH 12 0
BBX 6 8 3 0
BITMAP
78
C8
08
30
0C
84
CC
78
ENDCHAR
STARTCHAR four.dnom
ENCODING -1
SWIDTH 600 0
DWIDTH 12 0
BBX 6 8 3 0
BITMAP
38
28
68
48
C8
FC
08
08
ENDCHAR
STARTCHAR five.dnom
ENCODING -1
SWIDTH 600 0
DWIDTH 12 0
BBX 6 8 3 0
BITMAP
78
40
40
F8
CC
0C
CC
78
ENDCHAR
STARTCHAR six.dnom
ENCODING -1
SWIDTH 600 0
DWIDTH 12 0
BBX 6 8 3 0
BITMAP
78
48
C0
F8
CC
CC
4C
78
ENDCHAR
STARTCHAR seven.dnom
ENCODING -1
SWIDTH 600 0
DWIDTH 12 0
BBX 6 8 3 0
BITMAP
FC
8C
08
18
10
30
20
20
ENDCHAR
STARTCHAR eight.dnom
ENCODING -1
SWIDTH 600 0
DWIDTH 12 0
BBX 6 8 3 0
BITMAP
78
CC
CC
78
48
84
CC
78
ENDCHAR
STARTCHAR nine.dnom
ENCODING -1
SWIDTH 600 0
DWIDTH 12 0
BBX 6 8 3 0
BITMAP
78
C8
CC
CC
7C
0C
48
78
ENDCHAR
STARTCHAR zero.numr
ENCODING -1
SWIDTH 600 0
DWIDTH 12 0
BBX 6 8 3 6
BITMAP
78
48
CC
CC
CC
CC
CC
78
ENDCHAR
STARTCHAR one.numr
ENCODING -1
SWIDTH 600 0
DWIDTH 12 0
BBX 6 8 3 6
BITMAP
30
30
70
30
30
30
30
FC
ENDCHAR
STARTCHAR two.numr
ENCODING -1
SWIDTH 600 0
DWIDTH 12 0
BBX 6 8 3 6
BITMAP
78
48
CC
08
38
60
C0
FC
ENDCHAR
STARTCHAR three.numr
ENCODING -1
SWIDTH 600 0
DWIDTH 12 0
BBX 6 8 3 6
BITMAP
78
C8
08
38
08
84
CC
78
ENDCHAR
STARTCHAR four.numr
ENCODING -1
SWIDTH 600 0
DWIDTH 12 0
BBX 6 8 3 6
BITMAP
38
28
68
48
88
FC
08
08
ENDCHAR
STARTCHAR five.numr
ENCODING -1
SWIDTH 600 0
DWIDTH 12 0
BBX 6 8 3 6
BITMAP
78
40
40
F8
CC
0C
CC
78
ENDCHAR
STARTCHAR six.numr
ENCODING -1
SWIDTH 600 0
DWIDTH 12 0
BBX 6 8 3 6
BITMAP
78
48
C0
F8
CC
CC
4C
78
ENDCHAR
STARTCHAR seven.numr
ENCODING -1
SWIDTH 600 0
DWIDTH 12 0
BBX 6 8 3 6
BITMAP
FC
8C
08
18
10
30
20
20
ENDCHAR
STARTCHAR eight.numr
ENCODING -1
SWIDTH 600 0
DWIDTH 12 0
BBX 6 8 3 6
BITMAP
78
CC
CC
78
48
84
CC
78
ENDCHAR
STARTCHAR nine.numr
ENCODING -1
SWIDTH 600 0
DWIDTH 12 0
BBX 6 8 3 6
BITMAP
78
C8
CC
CC
7C
0C
4C
78
ENDCHAR
STARTCHAR uni2080.zero
ENCODING -1
SWIDTH 600 0
DWIDTH 12 0
BBX 6 7 3 -1
BITMAP
78
CC
CC
DC
EC
CC
78
ENDCHAR
STARTCHAR zero.dnom.zero
ENCODING -1
SWIDTH 600 0
DWIDTH 12 0
BBX 6 8 3 0
BITMAP
78
48
CC
DC
EC
CC
48
78
ENDCHAR
STARTCHAR zero.numr.zero
ENCODING -1
SWIDTH 600 0
DWIDTH 12 0
BBX 6 8 3 6
BITMAP
78
48
CC
DC
EC
CC
CC
78
ENDCHAR
STARTCHAR uni2070.zero
ENCODING -1
SWIDTH 600 0
DWIDTH 12 0
BBX 6 8 3 7
BITMAP
78
CC
CC
DC
EC
CC
48
78
ENDCHAR
STARTCHAR exclamdown.case
ENCODING -1
SWIDTH 600 0
DWIDTH 12 0
BBX 2 14 5 0
BITMAP
C0
C0
00
00
C0
C0
C0
C0
C0
C0
C0
C0
C0
C0
ENDCHAR
STARTCHAR questiondown.case
ENCODING -1
SWIDTH 600 0
DWIDTH 12 0
BBX 8 14 2 0
BITMAP
18
18
00
00
18
18
18
30
60
C3
C3
C3
66
3C
ENDCHAR
STARTCHAR parenleft.case
ENCODING -1
SWIDTH 600 0
DWIDTH 12 0
BBX 6 18 3 -2
BITMAP
04
1C
30
20
60
40
C0
C0
C0
C0
C0
C0
40
40
60
30
1C
0C
ENDCHAR
STARTCHAR parenright.case
ENCODING -1
SWIDTH 600 0
DWIDTH 12 0
BBX 6 18 3 -2
BITMAP
80
E0
30
10
18
08
0C
0C
0C
0C
0C
0C
08
08
18
30
E0
C0
ENDCHAR
STARTCHAR braceleft.case
ENCODING -1
SWIDTH 600 0
DWIDTH 12 0
BBX 8 18 2 -2
BITMAP
0F
08
18
18
18
18
18
18
10
F0
18
18
18
18
18
18
08
0F
ENDCHAR
STARTCHAR braceright.case
ENCODING -1
SWIDTH 600 0
DWIDTH 12 0
BBX 8 18 2 -2
BITMAP
F0
10
18
18
18
18
18
18
08
0F
18
18
18
18
18
18
10
F0
ENDCHAR
STARTCHAR bracketleft.case
ENCODING -1
SWIDTH 600 0
DWIDTH 12 0
BBX 6 18 4 -2
BITMAP
FC
80
80
80
80
80
80
80
80
80
80
80
80
80
80
80
80
FC
ENDCHAR
STARTCHAR bracketright.case
ENCODING -1
SWIDTH 600 0
DWIDTH 12 0
BBX 6 18 2 -2
BITMAP
FC
04
04
04
04
04
04
04
04
04
04
04
04
04
04
04
04
FC
ENDCHAR
STARTCHAR hyphen.case
ENCODING -1
SWIDTH 600 0
DWIDTH 12 0
BBX 6 1 3 6
BITMAP
FC
ENDCHAR
STARTCHAR endash.case
ENCODING -1
SWIDTH 600 0
DWIDTH 12 0
BBX 10 1 1 6
BITMAP
FFC0
ENDCHAR
STARTCHAR emdash.case
ENCODING -1
SWIDTH 600 0
DWIDTH 12 0
BBX 12 1 0 6
BITMAP
FFF0
ENDCHAR
STARTCHAR guillemotleft.case
ENCODING -1
SWIDTH 600 0
DWIDTH 12 0
BBX 8 8 2 3
BITMAP
13
26
64
4C
CC
64
26
33
ENDCHAR
STARTCHAR guillemotright.case
ENCODING -1
SWIDTH 600 0
DWIDTH 12 0
BBX 7 8 2 3
BITMAP
C8
4C
26
32
32
26
64
CC
ENDCHAR
STARTCHAR guilsinglleft.case
ENCODING -1
SWIDTH 600 0
DWIDTH 12 0
BBX 4 8 4 3
BITMAP
30
60
40
C0
C0
40
60
20
ENDCHAR
STARTCHAR guilsinglright.case
ENCODING -1
SWIDTH 600 0
DWIDTH 12 0
BBX 4 8 4 3
BITMAP
C0
60
20
30
30
20
60
40
ENDCHAR
STARTCHAR uni0308.case
ENCODING -1
SWIDTH 0 0
DWIDTH 0 0
BBX 6 2 -9 11
BITMAP
CC
CC
ENDCHAR
STARTCHAR uni0307.case
ENCODING -1
SWIDTH 0 0
DWIDTH 0 0
BBX 3 2 -8 11
BITMAP
E0
E0
ENDCHAR
STARTCHAR gravecomb.case
ENCODING -1
SWIDTH 0 0
DWIDTH 0 0
BBX 3 3 -8 11
BITMAP
C0
60
20
ENDCHAR
STARTCHAR acutecomb.case
ENCODING -1
SWIDTH 0 0
DWIDTH 0 0
BBX 4 3 -8 11
BITMAP
30
60
C0
ENDCHAR
STARTCHAR uni030B.case
ENCODING -1
SWIDTH 0 0
DWIDTH 0 0
BBX 7 3 -9 11
BITMAP
36
6C
D8
ENDCHAR
STARTCHAR uni0302.case
ENCODING -1
SWIDTH 0 0
DWIDTH 0 0
BBX 6 3 -9 11
BITMAP
30
FC
84
ENDCHAR
STARTCHAR uni030C.case
ENCODING -1
SWIDTH 0 0
DWIDTH 0 0
BBX 6 2 -9 11
BITMAP
CC
78
ENDCHAR
STARTCHAR uni0306.case
ENCODING -1
SWIDTH 0 0
DWIDTH 0 0
BBX 6 3 -9 11
BITMAP
84
CC
70
ENDCHAR
STARTCHAR uni030A.case
ENCODING -1
SWIDTH 0 0
DWIDTH 0 0
BBX 4 4 -8 11
BITMAP
F0
90
90
F0
ENDCHAR
STARTCHAR tildecomb.case
ENCODING -1
SWIDTH 0 0
DWIDTH 0 0
BBX 6 2 -9 12
BITMAP
E4
BC
ENDCHAR
STARTCHAR uni0304.case
ENCODING -1
SWIDTH 0 0
DWIDTH 0 0
BBX 6 1 -9 12
BITMAP
FC
ENDCHAR
ENDFONT
